<svg 
  width="100%" 
  height="100%" 
  viewBox="0 0 356 452" 
  fill="none" 
  xmlns="http://www.w3.org/2000/svg"
  stroke="currentColor"
>
  <path d="M67.8618 113.141C62.4764 113.141 75.2767 112.612 76.392 112.431C92.5872 109.794 108.388 104.74 124.445 101.341C145.017 96.9867 166.201 91.0005 186.147 84.352C198.699 80.1681 211.091 73.4916 223.964 70.917" stroke-linecap="round"/>
  <path d="M147.192 6.94072C142.854 6.94072 143.995 15.1019 143.354 18.4565C140.342 34.2232 137.919 50.1112 134.682 65.7989C130.401 86.5412 127.807 107.091 126.436 128.211C124.692 155.069 121.367 181.306 123.592 208.324C127.154 251.569 135.966 295.701 151.6 336.348C157.279 351.114 159.638 367.525 166.385 381.771C168.088 385.364 170.708 397.196 175.342 397.196" stroke-linecap="round"/>
  <path d="M202.212 164.322C202.212 177.583 192.556 194.103 187.497 205.907C174.293 236.718 153.811 262.379 133.118 288.436C111.893 315.164 91.2265 342.669 65.9425 365.706C57.3574 373.528 41.6342 389.804 28.1965 386.818C20.0827 385.015 10.5012 369.318 8.43497 361.938C3.83552 345.511 6.93777 328.213 12.9133 312.676C21.8377 289.473 40.0089 265.579 56.9859 247.563C77.2435 226.065 101.91 209.765 128.071 196.311C154.572 182.681 182.79 175.726 212.164 172C234.926 169.112 261.238 167.766 282.538 177.118C315.645 191.653 335.022 214.116 345.803 248.771C351.125 265.877 348.348 282.106 348.078 299.668C347.878 312.653 345.14 327.222 340.401 339.333C322.08 386.154 276.506 416.509 238.039 445.818" stroke-linecap="round"/>
</svg>
