<svg xmlns="http://www.w3.org/2000/svg" width="100%" height="100%" viewBox="0 0 227 391" fill="none" stroke="currentColor">
<path d="M8.09047 125.447C2.422 126.257 19.5528 127.025 25.2429 126.385C34.6932 125.322 43.4763 121.68 52.7136 119.685C67.6379 116.461 82.5808 114.246 97.4037 110.372C125.912 102.921 154.672 97.058 183.367 90.4724C190.517 88.8313 197.007 85.8653 204.003 83.9062C208.62 82.6136 207.287 83.2362 203.467 83.2362" stroke-linecap="round" />
<path d="M117.839 6.05025C115.923 8.4454 115.923 12.3232 115.36 15.2295C113.768 23.4552 110.463 31.3974 108.459 39.5511C102.758 62.7475 94.4417 87.0089 85.7454 109.233C76.307 133.353 66.7075 157.651 58.2077 182.131C50.9776 202.953 41.5254 223.018 34.6231 243.906C33.4672 247.405 20.2431 269.727 24.0369 273.521C25.7325 275.217 33.7379 268.433 34.7571 267.692C63.3719 246.881 96.0004 227.6 131.039 220.188C157.423 214.606 179.869 214.87 202.261 230.372C216.559 240.27 222.598 265.171 219.749 281.695C216.452 300.814 204.934 318.981 191.407 332.884C169.649 355.247 145.972 370.677 117.839 384.744" stroke-linecap="round" />
</svg>