<svg xmlns="http://www.w3.org/2000/svg" width="100%" height="100%" stroke="currentColor" viewBox="0 0 321 380" fill="none">
<path d="M121.1 6.55276C120.762 6.60115 131.291 9.67139 133.429 10.4389C141.906 13.482 148.492 20.075 155.137 25.8492C157.61 27.9972 165.724 32.7819 165.724 36.7035C165.724 38.9626 162.813 40.6104 162.106 42.7337" stroke-linecap="round" />
<path d="M33.0603 144.04C42.3659 143.11 53.1096 136.378 61.402 132.583C79.5482 124.279 97.8246 116.417 116.008 108.127C134.722 99.5961 153.902 91.8681 173.496 85.6147C176.207 84.7495 194.54 76.7794 193.395 81.9297C192.222 87.2116 185.217 94.8784 182.34 99.4171C175.013 110.978 166.662 122.881 158.42 133.789C133.846 166.315 110.298 199.021 88.2697 233.286C60.3862 276.661 29.9196 320.146 9.54271 367.692C9.01229 368.929 4.51814 376.795 6.52764 371.712C12.3379 357.015 18.9633 342.902 27.0302 329.233C37.1175 312.14 49.3083 297.176 61.737 281.796C72.8568 268.035 82.6844 253.183 96.7119 241.997C104.587 235.716 130.089 220.735 137.985 233.018C142.598 240.195 142.225 248.197 143.412 256.268C145.119 267.875 144.903 281.426 143.412 293.052C142.255 302.075 141.8 311.984 141.603 321.059C141.46 327.65 142.288 331.505 145.824 337.005C151.901 346.458 165.969 348.116 175.372 352.683C188.912 359.26 204.369 359.389 219.057 360.858C235.738 362.526 256.044 360.473 272.457 356.905C280.487 355.159 288.634 354.516 296.578 352.75C302.269 351.486 308.439 349.065 314.065 349.065" stroke-linecap="round" />
</svg>