<svg xmlns="http://www.w3.org/2000/svg" width="100%" height="100%" viewBox="0 0 378 391" fill="none" stroke="currentColor">
<path d="M171.131 6.93468C165.262 13.5364 174.89 28.0803 179.841 32.2613C185.374 36.9336 191.352 43.3882 197.931 46.4657C203.57 49.1032 211.58 50.2065 215.084 55.7119C217.079 58.8467 207.679 66.3323 205.503 67.8392C188.178 79.8332 176.427 99.8238 168.719 119.095" stroke-linecap="round" />
<path d="M183.191 166.131C183.191 185.174 192.928 201.282 201.281 217.99C216.109 247.646 224.196 277.63 224.196 310.787C224.196 335.554 214.936 361.424 195.318 377.119C188.101 382.893 180.822 386.249 171.734 382.546C156.994 376.541 144.893 366.568 132.538 356.683" stroke-linecap="round" />
<path d="M10.7286 306.03C6.32927 309.99 4.66542 310.683 7.37856 317.152C11.6071 327.236 16.2142 337.781 22.1859 346.968C23.0992 348.373 28.724 357.851 30.5611 356.013C31.767 354.808 31.3312 352.076 31.9682 350.519C36.0898 340.444 44.8483 332.258 51.7337 324.121" stroke-linecap="round" />
<path d="M329.121 250.553C341.185 261.411 351.867 273.531 360.477 287.404C363.656 292.524 365.774 298.282 368.92 303.35C369.668 304.555 373.092 308.719 370.126 307.236" stroke-linecap="round" />
</svg>