<svg xmlns="http://www.w3.org/2000/svg" width="100%" height="100%" viewBox="0 0 348 358" fill="none" stroke="currentColor">
<path d="M27.3518 68C25.0643 68.2859 25.0089 88.3878 24.9397 90.9146C24.4903 107.316 22.6431 124.156 20.1156 140.362C17.196 159.081 16.0511 178.12 12.8794 196.777C9.49219 216.702 9.30446 236.137 7.45226 256.141C5.88774 273.038 7.4562 290.206 9.79732 306.928C11.6705 320.308 12.2589 334.577 15.8945 347.665C17.5706 353.699 17.7035 352.47 17.7035 346.526C17.7035 341.283 19.6303 336.008 21.5226 331.183C30.9246 307.207 42.5856 284.076 53.8844 260.965" stroke-linecap="round" />
<path d="M172.075 95.7387C170.49 97.5505 194.178 93.769 196.263 93.3266C217.631 88.794 239.658 86.3863 261.322 83.6784C283.511 80.9047 308.874 75.3131 331.204 78.2513C331.728 78.3202 341.59 79.2353 341.59 78.8543C341.59 78.338 335.678 76.6394 334.889 76.4422" stroke-linecap="round" />
<path d="M283.03 6.49246C281.267 8.47571 281.973 10.7813 281.757 13.2596C280.992 22.0589 279.856 30.8787 279.479 39.7253C278.535 61.9137 280.618 84.1244 280.618 106.325C280.618 127.944 281.171 149.565 279.412 171.116C277.691 192.201 279.412 212.715 279.412 233.762C279.412 250.184 280.269 266.51 277 282.673C274.419 295.436 271.522 309.999 262.528 319.993C255.186 328.151 248.687 335.932 237.201 337.883C224.314 340.071 212.751 334.592 200.752 330.915C187.638 326.896 180.906 315.641 173.281 305.052C169.452 299.734 159.956 283.071 166.045 276.643C179.258 262.697 211.727 278.604 225.744 283.276C249.589 291.225 275.077 305.606 293.817 322.472C297.292 325.599 301.179 327.157 305.007 329.709C307.47 331.351 309.446 334.066 311.975 335.471C314.297 336.761 319.211 342.621 319.211 338.151" stroke-linecap="round" />
</svg>