<svg xmlns="http://www.w3.org/2000/svg" width="100%" height="100%" viewBox="0 0 382 199" fill="none" stroke="currentColor">
<path d="M6.84423 134.729C4.38113 134.421 12.8856 130.804 14.2144 129.838C24.5671 122.308 35.1032 114.237 43.2931 104.31C54.7896 90.3748 69.3891 77.4735 82.8241 65.3819C95.4709 53.9998 107.896 41.5834 119.943 29.536C129.387 20.0924 145.728 4.11336 160.948 7.15745C168.573 8.6824 176.366 15.5868 182.389 20.1558C193.719 28.7511 203.304 38.913 214.281 47.8945C238.946 68.0743 262.261 89.0848 283.561 112.752C292.691 122.897 304.676 131.177 314.985 140.156C324.067 148.066 331.184 157.183 339.709 165.549C347.981 173.669 358.872 178.915 367.447 186.588C368.653 187.667 379.442 192.618 374.683 192.618" stroke-linecap="round" />
</svg>