<svg xmlns="http://www.w3.org/2000/svg" width="100%" height="100%" viewBox="0 0 271 306" fill="none" stroke="currentColor">
<path d="M6.35175 28.8543C4.63439 29.0996 11.1027 30.0095 12.3819 29.7923C21.0757 28.316 29.6272 25.3053 37.9765 22.5561C46.717 19.6782 55.9959 17.5724 64.5092 14.1139C69.7485 11.9854 75.014 9.2985 80.5896 8.28476C82.2449 7.98379 85.2376 6.0737 86.5528 6.0737C88.1534 6.0737 81.3605 12.9075 80.9916 13.2429C63.8442 28.8315 48.8724 45.1184 38.9146 66.5092C26.4153 93.3595 17.6013 120.373 11.4439 149.189C8.62372 162.388 8.6844 175.841 7.82579 189.256C6.90539 203.638 6.99674 218.453 9.36683 232.673C12.8804 253.755 18.6434 272.62 34.6935 287.481C44.0726 296.165 62.5621 301.977 75.0955 297.799C82.6378 295.285 89.6344 288.66 95.598 283.595C105.62 275.083 115.738 266.857 125.481 258C149.411 236.245 171.582 212.889 190.874 186.844C209.91 161.147 227.825 136.249 237.843 105.571C242.099 92.5349 246.352 75.4798 246.352 61.6851C246.352 56.1548 246.415 69.3363 246.352 71.0653C245.658 90.1404 244.059 109.305 247.022 128.352C249.101 141.721 253.473 154.936 256.603 168.084C257.299 171.006 256.724 172.466 259.015 174.248C260.538 175.433 263.142 179.797 264.442 177.196" stroke-linecap="round" />
</svg>