<svg xmlns="http://www.w3.org/2000/svg" width="100%" height="100%" viewBox="0 0 357 321" fill="none" stroke="currentColor">
<path d="M30.1457 21.7638C27.2665 22.1237 24.9628 45.2708 24.1156 48.2965C19.1448 66.0491 17.8859 84.5602 14.1993 102.568C5.63347 144.409 5.51738 186.864 8.43718 229.201C9.98193 251.6 15.6046 275.091 21.6365 296.203C22.2663 298.407 22.3418 302.737 23.8476 304.243C24.0397 304.435 26.9504 293.886 27.3317 292.719C34.6414 270.333 46.6582 249.782 57.8844 229.201" stroke-linecap="round" />
<path d="M180.9 29C178.675 28.6822 184.29 27.5723 184.518 27.526C191.022 26.2011 197.373 23.4541 203.814 21.7638C224.62 16.3042 245.234 12.0516 266.528 8.76549C283.24 6.18635 301.323 5.16005 318.119 7.55946C321.706 8.07188 324.89 7.55235 323.211 10.9095" stroke-linecap="round" />
<path d="M191.754 135.131C199.065 142.442 216.688 138.152 225.523 137.007C234.023 135.905 242.586 136.647 251.117 136.069C263.57 135.224 275.632 133.236 287.968 131.513C308.043 128.708 333.363 130.004 350.95 119.452" stroke-linecap="round" />
<path d="M274.97 14.5276C273.124 1.60574 270.146 40.3355 270.146 53.3886C270.146 74.2895 270.355 95.2024 270.146 116.102C269.941 136.589 268.94 157.072 268.94 177.61C268.94 193.524 270.345 209.346 270.146 225.315C269.987 238 265.719 249.94 261.704 261.764C259.931 266.983 257.889 272.585 255.003 277.308C252.836 280.854 247.858 283.092 244.819 285.884C231.038 298.548 198.409 302.188 184.518 288.296C177.181 280.96 175.266 270.036 176.142 259.955C176.56 255.157 183.095 246.219 188.739 246.219C191.926 246.219 195.809 248.835 198.99 249.436C204.394 250.455 209.948 251.405 215.271 252.786C224.819 255.261 235.323 261.312 243.613 266.588C252.789 272.427 261.99 278.324 270.816 284.678C278.748 290.39 291.06 293.73 297.214 301.563C302.001 307.655 311.615 314.829 319.593 314.829" stroke-linecap="round" />
</svg>