<svg 
  width="100%"
  height="100%"
  viewBox="0 0 389 290" 
  fill="none" 
  xmlns="http://www.w3.org/2000/svg"
  stroke="currentColor"
>
<path d="M6.34674 19.6181C6.34674 78.6343 18.9628 137.745 38.9096 193.152C48.9173 220.952 59.409 253.223 78.7085 276.235C79.9352 277.697 88.3568 287.497 88.3568 281.193C88.3568 255.942 97.0223 232.099 106.447 208.965" stroke-linecap="round"/>
<path d="M309.06 6.35176C309.987 10.5209 317.743 15.4362 320.518 18.4791C327.253 25.8659 332.784 33.7682 337.067 42.8007C346.199 62.0574 360.953 80.1369 366.28 100.958C368.771 110.696 372.812 121.167 377.804 129.903C378.55 131.209 380.647 138.154 382.628 134.191" stroke-linecap="round"/>
</svg>
