<svg xmlns="http://www.w3.org/2000/svg" width="100%" height="100%" viewBox="0 0 418 347" fill="none" stroke="currentColor">
<path d="M8.0804 132.628C15.9339 131.843 27.8587 124.681 34.3451 120.568C44.6396 114.04 55.7166 109.666 66.9079 104.889C84.3295 97.4534 103.688 92.4713 122.653 92.8292C135.09 93.0638 142.75 101.486 150.66 109.982C162.403 122.594 162.452 144.449 162.452 160.367C162.452 183.601 160.815 206.845 153.943 229.178C146.01 254.959 136.12 280.389 125.065 304.956C121.594 312.671 116.757 320.076 112.402 327.335C110.724 330.132 108.063 334.83 105.233 336.447C103.903 337.207 102.542 342.61 100.878 338.725C94.5416 323.941 83.3008 309.981 74.4121 296.648" stroke-linecap="round" />
<path d="M91.2965 5.99498C88.7828 6.30919 89.8445 16.8511 89.5544 18.5913C86.7925 35.1627 81.8241 51.682 77.0921 67.7705C66.053 105.304 56.0395 143.123 43.6583 180.266C34.8816 206.596 25.6961 232.757 17.1256 259.127C16.3104 261.636 8.31423 282.877 6.87437 278.558" stroke-linecap="round" />
<path d="M301.146 90.4171C306.038 91.0286 311.539 96.3666 315.618 98.8593C323.596 103.735 331.113 109.728 338.265 115.744C353.018 128.155 368.175 138.529 378.332 155.275C386.227 168.291 396.21 180.576 405.132 192.93C407.838 196.676 408.694 200.469 410.894 204.32C412.467 207.072 410.368 205.824 409.688 203.784" stroke-linecap="round" />
</svg>