<svg xmlns="http://www.w3.org/2000/svg" width="100%" height="100%" viewBox="0 0 330 382" fill="none" stroke="currentColor">
<path d="M30.1759 64.1759C26.4951 64.1759 24.5373 89.4478 24.1457 93.6566C21.9533 117.226 17.2379 140.269 13.8945 163.673C10.4362 187.881 9.71556 212.079 7.52932 236.37C5.80294 255.552 7.43252 275.916 12.0854 294.528C16.3557 311.609 19.2073 330.867 30.1759 344.578C31.1662 345.816 32.4002 346.587 33.794 347.325C35.0101 347.969 36.206 352.051 36.206 350.675C36.206 345.08 34.3952 340.048 35.536 334.059C40.6595 307.16 53.63 280.512 65.1508 255.935" stroke-linecap="round" />
<path d="M172.487 108.799C164.079 108.799 189.206 106.621 197.345 104.511C220.508 98.5056 244.044 95.8599 267.697 92.5176C284.359 90.1632 300.491 85.8918 316.943 82.5343C320.99 81.7085 327.154 81.0603 319.623 81.0603" stroke-linecap="round" />
<path d="M260.528 6.28644C258.93 11.4793 259.322 16.7152 259.322 22.0988C259.322 32.352 258.116 42.4895 258.116 52.7186C258.116 70.9182 260.528 89.0202 260.528 107.325C260.528 136.359 260.528 165.393 260.528 194.427C260.528 200.658 259.851 207.275 259.054 213.456C258.214 219.96 258.77 226.566 257.848 233.02C255.914 246.558 254.03 258.045 249.137 270.943C244.371 283.509 239.545 296.993 233.459 309C219.696 336.154 196.858 356.511 173.693 375.332" stroke-linecap="round" />
</svg>