<svg xmlns="http://www.w3.org/2000/svg" width="100%" height="100%" viewBox="0 0 202 410" fill="none" stroke="currentColor">
<path d="M21.3869 92.5327C18.5995 92.7069 18.8962 94.0108 21.5879 93.0687C29.3101 90.3659 37.3291 88.4246 45.1055 85.8325C69.5265 77.6922 95.5459 69.8273 121.487 69.6181C131.994 69.5334 142.535 70.8241 152.844 70.8241C157.868 70.8241 158.305 69.5509 156.462 73.2362" stroke-linecap="round" />
<path d="M38.2714 185.397C35.8573 189.018 58.7685 186.857 60.5159 186.603C83.418 183.279 105.935 175.956 128.456 170.657C145.716 166.595 164.318 163.818 180.985 157.658C185.519 155.983 182.199 154.981 179.377 154.04" stroke-linecap="round" />
<path d="M98.5729 6.90453C98.0954 11.2015 100.403 14.1246 101.655 18.5628C105.725 32.9915 109.502 47.5705 114.318 61.7789C119.807 77.971 126.9 93.9212 132.945 109.953C139.71 127.896 144.896 146.541 152.241 164.224C163.186 190.572 174.998 216.619 185.139 243.286C187.846 250.406 191.909 256.717 194.787 263.521C195.615 265.477 195.524 265.179 193.045 264.459C185.651 262.312 178.344 259.876 170.935 257.759" stroke-linecap="round" />
<path d="M8.12062 316.854C-0.436737 326.481 24.8553 347.335 30.4322 352.499C44.3033 365.343 62.7977 376.66 80.2144 384.124C87.7113 387.337 95.5484 389.802 103.129 392.834C108.927 395.153 113.982 398.7 120.147 400.07C124.105 400.95 127.405 403.688 131.672 403.688C133.225 403.688 139.148 403.688 138.372 403.688" stroke-linecap="round" />
</svg>