<svg xmlns="http://www.w3.org/2000/svg" width="100%" height="100%" viewBox="0 0 203 328" fill="none" stroke="currentColor">
<path d="M19.799 6.55779C24.9106 6.55779 29.7777 7.76382 34.9414 7.76382C47.9857 7.76382 60.9869 6.55779 74.0703 6.55779C98.4409 6.55779 123.454 11.3503 145.226 22.2362C160.965 30.1056 174.603 39.713 188.643 50.2429C189.965 51.2343 198.133 55.9321 196.817 58.4171C195.755 60.4236 191.301 59.6231 189.581 59.6231C181.955 59.6231 174.527 60.169 166.935 60.8291" stroke-linecap="round" />
<path d="M7.73869 274.297C3.27741 270.331 10.8104 282.728 12.2948 284.213C20.3743 292.292 31.1275 296.288 41.5075 300.829C63.2356 310.335 87.094 315.787 110.519 319.188C125.603 321.377 140.248 321.332 155.477 321.332C165.523 321.332 175.302 318.92 185.025 318.92" stroke-linecap="round" />
</svg>