<svg xmlns="http://www.w3.org/2000/svg" width="100%" height="100%" viewBox="0 0 141 378" fill="none" stroke="currentColor">
<path d="M128.075 6.66833C128.075 13.5559 124.745 19.7401 121.978 25.9648C116.996 37.1753 113.017 48.711 107.506 59.7337C100.284 74.178 89.3739 87.5554 80.1022 100.739C70.0956 114.967 59.4671 128.75 49.4154 142.95C36.4416 161.278 20.2579 177.064 8.07538 196.015C5.99578 199.25 6.93302 201.343 10.5544 203.318C17.0846 206.88 23.0947 213.998 27.9079 219.533C56.5587 252.481 87.4773 283.105 109.918 320.973C116.029 331.286 125.958 346.79 126.869 359.097C127.273 364.547 131.362 378.411 134.106 366.065" stroke-linecap="round" />
</svg>