<svg xmlns="http://www.w3.org/2000/svg" width="100%" height="100%" viewBox="0 0 229 398" fill="none" stroke="currentColor">
<path d="M7.0603 108.03C5.13081 107.755 12.7136 105.787 13.3585 105.618C25.3046 102.494 37.7658 99.7825 49.9414 97.7789C86.0692 91.8338 122.406 89.1552 159.02 90.0067C178.118 90.4508 201.06 92.227 219.054 99.5879C228.539 103.468 216.645 102.066 212.085 103.206" stroke-linecap="round" />
<path d="M56.5075 197.276C56.4192 197.276 64.989 198.482 67.4958 198.482C82.3425 198.482 97.0058 195.4 111.717 193.658C129.224 191.585 146.896 189.682 164.313 187.025C168.354 186.409 179.79 185.888 181.935 181.598" stroke-linecap="round" />
<path d="M125.251 6.72362C123.543 10.3536 124.045 14.1695 124.045 18.1139C124.045 28.4098 124.045 38.7058 124.045 49.0017C124.045 74.5645 124.508 99.9882 125.318 125.518C126.181 152.691 130.479 179.646 131.214 206.858C131.948 234.012 133.693 261.161 133.693 288.332C133.693 319.187 130.958 352.991 113.191 379.387C99.3421 399.962 67.0144 390.236 51.9514 375.501C43.0549 366.798 33.2722 356.298 32.4539 343.206C31.9372 334.939 31.5169 325.986 37.8141 319.688C43.9366 313.566 54.6048 317.434 61.8677 319.688C74.604 323.641 87.3141 327.714 99.9916 331.816C114.015 336.353 128.352 342.011 141.198 349.236C154.279 356.594 169.149 360.33 181.935 368.533C187.726 372.248 194.842 374.74 199.757 379.655C201.965 381.863 204.552 384.063 207.261 385.417" stroke-linecap="round" />
</svg>