<svg xmlns="http://www.w3.org/2000/svg" width="100%" height="100%" viewBox="0 0 343 359" fill="none" stroke="currentColor">
<path d="M35.6181 64.2663C30.01 65.6683 38.5889 99.6035 39.2362 103.127C44.0131 129.135 48.2529 154.825 57.3266 179.777C66.3563 204.609 73.3664 231.288 86.0033 254.551C88.3988 258.961 101.252 290.429 106.774 288.588" stroke-linecap="round" />
<path d="M155.015 6.37688C150.952 32.7897 145.626 59.9201 139.337 85.9749C130.023 124.56 114.482 160.515 99.5377 197.198C86.2028 229.929 72.7726 262.021 51.2965 290.33C48.5181 293.992 36.0888 313.217 30.191 306.008C26.8362 301.908 22.7605 298.273 20.5427 293.345C17.3744 286.304 16.1706 279.019 13.9096 271.704C11.4449 263.73 10.8113 255.125 8.54942 247.047C7.63645 243.786 6.67337 238.877 6.67337 235.523C6.67337 225.91 19.7253 212.239 24.8308 204.836C42.1947 179.658 65.0821 158.477 88.8174 139.576C117.913 116.407 151.789 99.1044 187.31 88.3869C211.2 81.1786 241.098 77.4682 265.97 81.8208C286.154 85.353 299.186 93.041 311.799 109.157C321.014 120.932 329.636 137.369 332.57 152.039C338.324 180.813 338.825 212.255 321.38 237.332C310.356 253.179 299.175 268.241 286.472 282.826C263.439 309.271 240.546 333.853 210.492 352.508" stroke-linecap="round" />
</svg>