<svg xmlns="http://www.w3.org/2000/svg" width="100%" height="100%" viewBox="0 0 384 411" fill="none" stroke="currentColor">
<path d="M94.2714 15.0503C90.3081 17.164 97.4548 18.061 99.3635 18.4003C107.51 19.8487 117.179 18.8165 125.092 16.7923C128.352 15.9584 164.071 3.90205 164.221 6.60804C164.506 11.744 160.84 16.0283 159.397 20.8124C156.402 30.7428 153.457 40.8789 149.749 50.5611C144.937 63.1257 141.654 76.1857 136.482 88.6181C130.051 104.079 123.113 119.29 115.98 134.447C102.05 164.049 87.1326 192.749 71.6248 221.549C59.4417 244.175 49.854 269.375 35.2429 290.561C31.1091 296.555 27.8045 301.634 23.1156 306.91C17.4314 313.304 11.0282 289.786 9.84925 285.201C6.77501 273.246 6.23116 261.956 6.23116 249.69C6.23116 244.84 31.997 236.957 36.1139 235.754C56.8387 229.696 78.3877 225.135 99.6985 221.884C131.13 217.09 162.739 211.345 194.372 208.618C238.309 204.83 283.225 206.284 325.829 218.266C338.335 221.784 351.459 227.79 363.216 233.342C368.013 235.607 375.199 238.011 377.688 242.99" stroke-linecap="round" />
<path d="M318.593 135.653C316.094 138.777 316.783 145.708 315.578 149.59C312.238 160.352 309.193 171.225 305.93 182.018C298.867 205.38 289.889 227.707 280 249.958C270.14 272.143 259.685 295.559 243.886 314.146C234 325.776 226.126 338.867 215.812 350.327C198.814 369.214 181.392 387.02 163.015 404.598" stroke-linecap="round" />
</svg>