<svg xmlns="http://www.w3.org/2000/svg" width="100%" height="100%" viewBox="0 0 221 389" fill="none" stroke="currentColor">
<path d="M84.7487 6.43216C84.7487 23.9109 86.9517 39.5174 81.3987 56.8174C70.2253 91.6267 60.9872 127.063 52.2529 162.546C47.3115 182.621 43.808 203.41 42.5377 224.054C41.2311 245.286 37.5323 267.277 39.0536 288.576C41.2585 319.444 62.398 356.057 89.3049 371.859C104.004 380.492 118.958 388.084 135.134 378.157C142.827 373.437 148.48 365.482 153.76 358.325C161.557 347.756 171.275 338.785 179.355 328.442C186.835 318.867 195.756 308.658 201.064 297.688C204.49 290.607 211.648 280.821 212.521 272.965C213.414 264.923 213.331 256.878 214.397 248.777C216.683 231.403 210.176 213.305 210.176 195.779" stroke-linecap="round" />
<path d="M6.35678 104.121C24.596 99.684 43.0918 95.4619 61.8342 93.9364C75.3968 92.8324 88.9926 93.6336 102.571 92.9983C114.472 92.4416 125.79 91.9692 137.613 93.8693C139.031 94.0972 156.633 96.5348 149.338 98.3585C142.208 100.141 135.11 103.012 128.166 105.327" stroke-linecap="round" />
<path d="M14.799 229.548C7.51426 229.548 15.5304 231.693 18.4171 232.228C35.9711 235.479 53.0059 241.355 70.8794 242.814C87.3439 244.158 104.263 244.872 120.796 243.953C125.24 243.706 129.903 242.198 134.196 241.005C137.025 240.219 140.468 240.402 135.402 240.402" stroke-linecap="round" />
</svg>