<svg xmlns="http://www.w3.org/2000/svg" width="100%" height="100%" viewBox="0 0 341 315" fill="none" stroke="currentColor">
<path d="M8.11557 102.065C4.54529 102.462 8.69278 102.854 10.7956 102.065C20.7581 98.3294 30.8671 95.0992 40.6784 90.943C60.0287 82.746 81.5799 78.8532 100.444 69.7705C104.22 67.9522 120.276 60.0298 120.276 56.2362" stroke-linecap="round" />
<path d="M86.5075 15.2312C84.7025 17.2618 85.3015 20.0404 85.3015 22.6013C85.3015 31.4642 85.0182 40.1619 84.3635 49C82.8051 70.0383 83.28 91.8272 82.8894 112.92C82.1818 151.132 78.9332 189.295 76.9263 227.425C76.1425 242.318 72.5148 256.262 70.2261 270.91C69.5675 275.125 70.4737 293.69 62.9229 293.69C51.4166 293.69 41.7689 272.038 40.1424 263.673C36.9701 247.359 43.1723 229.945 50.3266 215.432C52.0344 211.968 60.8229 194.572 67.2111 200.96C75.0605 208.809 74.8092 227.132 75.9213 237.141C79.1064 265.806 89.4162 290.684 118.534 300.39C194.529 325.722 286.148 290.843 314.447 213.02" stroke-linecap="round" />
<path d="M263.794 6.78894C274.34 13.5687 284.47 19.923 293.945 28.2295C302.957 36.131 310.138 45.8017 319.271 53.5561C325.211 58.5995 337.229 78.8842 333.744 71.9146" stroke-linecap="round" />
</svg>