<svg xmlns="http://www.w3.org/2000/svg" width="100%" height="100%" viewBox="0 0 372 346" fill="none" stroke="currentColor">
<path d="M160.603 6.52261C157.444 6.87361 155.5 20.9505 154.305 23.675C143.854 47.4929 135.793 72.2652 125.025 95.9028C107.066 135.326 86.0334 172.753 66.8007 211.548C51.3949 242.623 40.977 275.755 24.9916 306.623C21.8453 312.699 18.2847 318.637 12.7973 322.905C10.8053 324.454 9.63447 325.088 8.37522 327.327C1.23222 340.025 21.1379 301.04 29.1457 288.868C51.1539 255.415 71.2868 219.062 101.374 192.318C115.538 179.728 119.948 192.102 121.742 206.456C125.575 237.123 124.702 268.051 136.482 297.176C142.26 311.46 150.881 323.254 163.685 332.084C175.964 340.552 193.218 339.527 207.37 339.387C229.552 339.167 254.759 329.888 272.898 317.477C311.975 290.741 338.426 254.455 365.628 216.372" stroke-linecap="round" />
</svg>