<svg xmlns="http://www.w3.org/2000/svg" width="100%" height="100%" viewBox="0 0 340 359" fill="none" stroke="currentColor">
<path d="M26.3518 70.0603C23.8874 72.2508 23.5896 72.4724 27.5578 72.4724C38.7211 72.4724 48.6489 70.2903 59.5846 68.3183C73.6603 65.78 86.9995 63.54 100.523 58.603C110.426 54.9875 120.811 51.0529 131.276 49.5578" stroke-linecap="round" />
<path d="M92.6834 6.1407C89.7501 7.79071 89.3949 10.4881 88.3953 13.5779C85.7558 21.7364 82.4681 29.6585 79.6851 37.7655C70.8605 63.4718 57.3939 87.5527 46.1842 112.271C36.2996 134.068 27.3263 155.961 17.9765 177.933C15.3074 184.206 12.4821 190.463 8.2613 195.889C6.27478 198.444 5.53932 199.415 8.2613 196.693" stroke-linecap="round" />
<path d="M277.206 71.2663C283.51 77.5705 292.34 81.1881 299.183 86.9447C308.476 94.763 318.484 101.95 326.586 111.065C330.693 115.685 330.883 120.786 333.286 126.074C334.519 128.784 331.891 127.417 330.271 127.012C325.068 125.711 319.93 125.538 314.593 125.538" stroke-linecap="round" />
<path d="M196.402 165.337C191.984 167.676 190.711 173.969 189.166 178.603C184.907 191.38 185.046 204.742 182.533 217.866C177.128 246.092 178.064 274.474 169.266 302.221C165.42 314.352 158.312 324.884 151.779 335.655C148.644 340.822 139.44 352.137 132.482 352.137C123.285 352.137 112.78 339.125 108.094 332.707C101.197 323.261 92.9736 313.13 88.5293 302.221C85.5282 294.855 79.6148 275.604 93.6214 275.085C109.525 274.496 124.598 284.856 138.781 291.032C160.13 300.329 178.844 310.46 197.34 324.533C205.367 330.64 213.504 337.14 221.729 342.623" stroke-linecap="round" />
</svg>