<svg xmlns="http://www.w3.org/2000/svg" width="100%" height="100%" viewBox="0 0 329 352" fill="none" stroke="currentColor">
<path d="M93.8292 10.8191C93.8292 -13.7948 94.5284 60.0955 92.8911 84.6549C90.3043 123.458 88.6228 162.297 86.325 201.104C85.1587 220.801 84.5561 240.501 83.2429 260.199C82.1508 276.581 83.3904 292.986 82.0369 309.379C81.1955 319.568 82.6975 333.131 78.1508 342.477C73.1635 352.729 71.7259 337.156 70.9146 332.829" stroke-linecap="round" />
<path d="M6.99497 131.422C5.05239 131.665 6.6276 132.747 7.93299 132.36C12.168 131.105 16.2011 128.096 19.9263 125.861C38.4488 114.747 56.2348 102.206 73.3266 88.943C80.0142 83.7535 87.0054 78.8781 93.5611 73.5327C95.608 71.8637 99.8253 67.6365 102.807 67.6365C103.212 67.6365 93.975 88.7888 93.1591 90.5511C83.1836 112.098 72.8239 132.764 60.9983 153.399C48.1904 175.747 38.222 198.726 28.1005 222.343C23.8271 232.315 19.117 242.276 14.4992 252.025C9.19762 263.217 28.9682 231.922 36.2077 221.874C71.417 173.006 110.175 123.254 155.337 83.1809C172.2 68.2179 188.861 53.3165 208.335 41.7069C221.035 34.1355 235.354 25.438 249.943 22.3434C265.776 18.9849 290.187 15.3974 301.266 30.7856C314.826 49.619 319.474 75.4042 321.501 97.9213C324.144 127.285 321.123 158.232 318.419 187.436C315.7 216.799 306.483 242.401 287.464 265.224C275.456 279.634 261.95 296.648 242.104 296.648C225.452 296.648 199.358 289.455 196.074 270.116C193.531 255.141 200.096 251.755 214.432 252.025C222.738 252.182 229.279 255.55 236.744 258.591C245.69 262.236 254.07 265.61 262.003 271.322C277.581 282.537 291.54 296.285 303.678 311.121C308.237 316.692 316.202 322.902 319.357 329.211" stroke-linecap="round" />
</svg>