<svg xmlns="http://www.w3.org/2000/svg" width="100%" height="100%" viewBox="0 0 327 310" fill="none" stroke="currentColor">
<path d="M20.3518 6.52763C18.1136 6.8074 20.3518 24.8211 20.3518 27.0301C20.3518 41.7104 19.6515 55.8484 18.2077 70.4472C16.5502 87.2064 14.6228 104.214 11.9095 120.832C8.7659 140.087 9.33672 160.143 7.68844 179.593C6.19897 197.169 5.39616 217.008 7.75544 234.534C9.89515 250.429 13.4786 266.092 15.5276 281.972C16.4213 288.897 17.9771 295.745 19.2127 302.541C20.0066 306.908 21.0298 296.497 21.0888 296.176C24.9612 275.093 33.4348 255.786 43.2663 236.879" stroke-linecap="round" />
<path d="M210.905 39.0904C211.444 36.6612 215.268 36.0467 217.203 35.2044C223.847 32.3108 230.116 28.6332 236.834 25.8911C252.916 19.3273 270.086 16.6125 286.884 12.5578C295.378 10.5077 306.895 8.08385 315.561 11.0837C317.335 11.6977 320.156 16.6728 319.447 17.3819" stroke-linecap="round" />
<path d="M183.166 227.231C183.771 222.387 191.112 230.192 191.876 230.849C198.907 236.899 203.583 243.532 212.111 247.734C220.84 252.035 229.279 256.107 237.705 261C245.89 265.753 254.987 271.747 264.506 273.06C279.079 275.07 293.654 281.503 308.593 281.503C312.01 281.503 315.427 281.503 318.844 281.503C323.358 281.503 319.038 281.632 317.035 280.296" stroke-linecap="round" />
</svg>