<svg xmlns="http://www.w3.org/2000/svg" width="100%" height="100%" viewBox="0 0 329 336" fill="none" stroke="currentColor">
<path d="M155.457 24.794C152.978 25.4138 154.251 36.2081 154.251 38.0603C154.251 50.8323 151.895 62.8287 150.633 75.4472C147.386 107.916 135.979 138.731 119.276 166.57C101.473 196.243 76.1734 220.87 54.7538 247.843C48.6582 255.518 42.0874 263.048 34.7873 269.618C31.6927 272.403 25.0633 279.973 23.062 272.968C22.0199 269.321 22.9479 264.864 22.727 261.109C22.3529 254.75 21.5507 248.136 20.3819 241.879C17.1724 224.699 11.7774 207.775 9.05863 190.556C5.9355 170.776 6.38909 151.478 7.11558 131.863C7.34055 125.789 11.0181 119.162 13.4137 113.772C19.4571 100.175 29.6552 88.5138 39.8124 77.7923C52.6872 64.2023 68.2737 51.9753 84.0335 41.9464C99.6253 32.0244 115.625 21.4422 133.146 15.2127C175.442 0.174159 232.033 2.74225 269.36 29.6181C283.782 40.0018 295.753 52.1191 303.799 68.2111C310.11 80.8332 318.176 90.5752 320.683 104.995C323.276 119.904 322.285 135.545 319.745 150.221C316.624 168.254 311.987 190.336 302.526 206.302C290.882 225.951 278.199 247.056 262.258 263.588C235.636 291.196 206.346 311.918 172.342 329.92" stroke-linecap="round" />
</svg>