<svg xmlns="http://www.w3.org/2000/svg" width="100%" height="100%" viewBox="0 0 357 341" fill="none" stroke="currentColor">
<path d="M53.8543 69.206C53.8543 57.4515 53.4954 92.799 55.0603 104.449C58.6282 131.01 66.5559 156.519 76.1658 181.434C85.4241 205.437 92.1419 232.654 107.523 253.662C109.618 256.524 131.426 290.344 133.452 286.291" stroke-linecap="round" />
<path d="M161.191 6.49246C157.898 7.22421 157.419 13.9153 156.97 16.4087C155.143 26.559 152.697 36.4722 150.605 46.5595C145.804 69.7075 140.535 93.2493 132.849 115.638C125.559 136.876 115.607 156.856 107.523 177.816C103.476 188.307 98.3893 198.007 93.6533 208.168C88.2143 219.837 84.3161 232.148 78.9129 243.812C70.7725 261.385 61.3355 279.268 51.4422 295.94C45.6027 305.78 38.3201 314.913 32.7487 324.817C29.5358 330.529 27.5906 325.893 26.7186 322.405C23.0972 307.92 21.4248 293.22 15.5293 279.323C5.82236 256.443 4.77432 232.218 9.76717 207.966C11.999 197.126 14.0327 188.031 20.7554 178.888C31.5076 164.265 42.9025 152.798 57.4724 141.836C72.5458 130.495 89.5251 120.382 106.384 111.953C124.113 103.088 142.397 93.7787 161.124 87.2965C190.704 77.0572 221.239 68 252.849 68C278.882 68 304.437 74.0802 321.593 95.1357C337.497 114.655 350.216 138.503 350.538 164.214C350.937 196.186 339.882 226.866 325.144 254.868C318.357 267.762 304.79 276.712 293.787 285.688C287.75 290.613 281.458 294.756 274.558 298.352C269.474 301.001 265.39 305.14 259.817 306.794C248.077 310.279 235.942 309.774 224.173 306.794C211.838 303.671 208.226 289.064 208.226 277.849C208.226 253.743 231.055 265.474 244.675 271.551C272.42 283.93 291.58 303.621 314.893 322.271C318.32 325.013 322.39 326.969 325.814 329.709C327.13 330.761 328.829 335.242 328.829 334.533" stroke-linecap="round" />
</svg>