<svg xmlns="http://www.w3.org/2000/svg" width="100%" height="100%" viewBox="0 0 378 390" fill="none" stroke="currentColor">
<path d="M11.1156 104.181C7.78502 107.141 9.9563 106.593 13.6616 106.593C27.2832 106.593 40.6585 99.8321 53.3936 95.7387C68.7451 90.8043 84.1174 85.9086 99.1558 80.0603C105.8 77.4764 114.465 75.605 119.658 70.4121" stroke-linecap="round" />
<path d="M88.3015 6.49246C88.3015 45.3116 85.5315 83.7736 81.6683 122.405C79.1883 147.205 80.2188 171.996 77.4472 196.777C74.9057 219.501 75.8126 242.415 73.2261 265.119C69.6774 296.269 67.4114 327.604 63.9129 358.653C62.9844 366.894 64.1809 373.861 64.1809 381.568C64.1809 386.551 56.4131 378.01 54.2646 376.476C43.0798 368.487 31.1174 360.56 20.8308 351.484C16.1925 347.391 0.605167 337.28 8.1005 331.451C13.2019 327.483 16.7748 321.809 21.7018 317.648C28.6641 311.769 35.724 305.626 42.4724 299.491C59.3809 284.119 76.493 268.532 96.1407 256.744C116.56 244.492 141.549 235.566 164.281 228.67C190.432 220.737 216.949 212.727 243.879 207.899C264.709 204.166 289 199.221 309.608 206.09C319.166 209.276 328.905 212.84 337.95 217.28C344.589 220.539 354.133 223.915 358.988 229.742C368.685 241.378 371.994 260.557 371.719 275.437C371.527 285.787 365.38 296.422 360.864 305.454C356.407 314.368 349.479 323.522 342.506 330.647C333.225 340.129 323.521 350.22 312.69 357.916C304.461 363.763 292.631 371.757 282.204 371.92C270.71 372.099 259.015 374.151 247.966 370.714C241.024 368.554 233.79 367.396 227.062 364.549C218.665 360.997 212.118 353.654 205.286 347.799" stroke-linecap="round" />
<path d="M264.382 43.8794C265.628 50.109 279.227 55.2179 283.678 58.6198C295.115 67.3588 304.336 79.4322 313.762 90.2446C319.921 97.3086 328.014 103.749 333.126 111.417" stroke-linecap="round" />
</svg>