<svg xmlns="http://www.w3.org/2000/svg" width="100%" height="100%" viewBox="0 0 191 378" fill="none" stroke="currentColor">
<path d="M58.0151 6.0804C64.2027 11.0305 74.6752 11.291 81.5327 15.8626C87.0704 19.5545 91.1958 24.4402 97.1441 27.7219C101.692 30.2311 106.745 32.0375 111.013 35.0251C114.829 37.6958 117.887 39.2204 120.461 42.5293C121.503 43.8691 117.049 42.7694 115.369 42.5293C106.727 41.2948 97.8089 42.986 89.3719 44.6734" stroke-linecap="round" />
<path d="M37.5126 94.1206C33.7022 94.5969 29.7481 118.148 29.0704 121.323C25.7737 136.766 22.6835 152.24 19.4221 167.688C14.4036 191.46 8.6401 213.351 7.36182 237.638C7.24987 239.765 5.64419 239.947 7.36182 237.37C10.5293 232.619 14.907 229.012 19.4221 225.578C32.0214 215.995 46.9792 207.482 61.6332 201.457C86.148 191.379 124.561 183.056 147.864 200.318C163.532 211.924 174.349 222.363 180.36 241.256C185.558 257.592 186.363 276.072 176.809 290.771C165.078 308.819 151.461 322.58 133.325 334.188C109.076 349.707 87.5772 367.812 58.0151 371.508" stroke-linecap="round" />
</svg>