<svg xmlns="http://www.w3.org/2000/svg" width="100%" height="100%" viewBox="0 0 351 306" fill="none" stroke="currentColor">
<path d="M88.4472 6.29146C88.4472 63.356 87.2412 120.449 87.2412 177.548C87.2412 208.413 87.2412 239.279 87.2412 270.144C87.2412 277.67 90.1984 292.647 84.2261 298.62C78.7075 304.138 77.0668 290.016 76.3869 287.296" stroke-linecap="round" />
<path d="M26.9397 96.7437C22.365 96.7437 35.2441 92.8898 39.268 90.7136C52.256 83.6895 65.1646 76.4944 78.531 70.2111C91.7596 63.9925 130.993 44.6414 118.598 52.3886C113.668 55.4701 108.484 66.0627 105.332 70.7471C94.8933 86.2596 84.3272 101.669 73.9749 117.246C52.4897 149.574 32.127 182.283 11.9313 215.404C10.9679 216.984 2.78378 227.452 7.77722 223.846C17.33 216.947 25.8425 206.946 34.8459 199.189C70.1311 168.79 105.262 138.262 140.307 107.598C166.082 85.0443 193.08 63.6307 220.173 42.7404C232.638 33.1286 249.394 20.4529 265.667 18.4188C271.867 17.6437 269.352 27.3014 269.352 31.6851C269.352 45.1301 269.352 58.5751 269.352 72.0201C269.352 92.2789 268.878 112.806 266.27 132.925C263.275 156.026 258.497 179.234 258.497 202.606C258.497 216.449 257.03 230.032 257.291 243.879C257.409 250.11 259.337 259.191 263.925 263.779C268.539 268.393 272.185 270.945 279.067 268.536C302.991 260.163 324.004 245.704 344.126 230.613" stroke-linecap="round" />
</svg>