<svg xmlns="http://www.w3.org/2000/svg" width="100%" height="100%" viewBox="0 0 163 381" fill="none" stroke="currentColor">
<path d="M17.4774 16.5528C17.4774 15.2744 18.6834 9.681 18.6834 13.2027C18.6834 25.4276 15.1908 38.3518 13.2563 50.3886C8.22526 81.6927 6.62311 112.738 6.62311 144.392C6.62311 155.224 7.65558 165.926 7.82914 176.687C7.85333 178.187 6.84875 189.683 8.49915 190.154C11.2887 190.951 12.6533 188.381 12.6533 185.933C12.6533 168.973 24.9866 152.12 33.1558 138.362" stroke-linecap="round" />
<path d="M146.523 6.90453C145.091 10.3817 147.316 13.8341 148.265 17.2228C149.984 23.365 149.624 30.6916 150.409 37.0553C152.484 53.8845 153.19 70.9103 154.965 87.7756C158.661 122.885 156.442 157.498 152.553 192.499C149.371 221.133 134.588 247.336 123.876 273.705C117.276 289.951 111.668 304.727 102.436 319.869C89.8515 340.507 71.7914 357.817 54.8643 374.744" stroke-linecap="round" />
</svg>