<svg xmlns="http://www.w3.org/2000/svg" width="100%" height="100%" viewBox="0 0 296 368" fill="none" stroke="currentColor">
<path d="M97.7437 22.2915C97.6414 23.1097 95.3157 25.302 97.2077 25.8425C100.678 26.8339 105.708 25.9095 109.268 25.9095C127.467 25.9095 143.5 19.0387 160.725 14.1173C168.032 12.0297 175.786 10.5104 182.702 7.28308C187.938 4.83948 180.103 11.7931 179.017 12.6432C159.41 27.9875 143.005 45.6116 125.482 63.2965C100.421 88.5898 76.8465 115.574 53.2546 142.224C38.113 159.329 22.7253 176.658 8.7655 194.754C8.15622 195.544 4.83603 198.263 6.75545 197.166C11.2499 194.598 15.7568 192.045 20.0888 189.193C42.8226 174.222 65.8088 159.342 90.5075 147.719C117.985 134.788 149.278 128.307 179.486 126.278C201.074 124.828 220.934 129.411 240.658 138.07C255.459 144.568 266.828 157.279 275.968 170.365C284.793 183 286.723 196.774 288.9 211.571C293.737 244.464 274.111 272.859 252.116 294.854C239.528 307.441 224.512 316.511 208.967 325.005C184.863 338.175 160.694 350.961 135.131 361.186" stroke-linecap="round" />
</svg>