<svg xmlns="http://www.w3.org/2000/svg" width="100%" height="100%" viewBox="0 0 289 352" fill="none" stroke="currentColor">
<path d="M77.8593 16.4673C78.1259 18.8667 83.0731 21.5425 85.0955 22.4975C92.4225 25.9575 107.108 24.4223 114.71 22.9665C128.587 20.3092 142.086 16.3261 155.581 12.2462C158.07 11.4939 172.905 4.71204 175.28 7.08711C177.932 9.73981 166.874 19.8711 165.631 21.2915C153.261 35.4291 141.479 50.2547 130.322 65.3786C102.559 103.012 75.6231 140.715 45.5645 176.601C36.1152 187.883 26.3819 199.598 17.8258 211.576C15.0651 215.441 11.363 223.59 7.37353 226.25C2.98662 229.174 12.4424 216.912 15.8827 212.916C27.5483 199.369 41.9864 188.787 57.6248 180.219C90.0922 162.433 123.482 145.553 160.539 140.085C189.148 135.865 220.756 133.447 246.972 148.193C283.994 169.018 293.066 226.725 268.144 259.817C249.185 284.992 226.123 306.681 199.132 323.335C180.462 334.855 156.022 353.123 133.337 342.095C120.967 336.083 102.826 323.519 111.025 307.121C115.658 297.855 125.445 294.666 134.543 299.214C145.336 304.611 153.798 311.58 163.487 318.578C167.757 321.661 172.022 324.903 176.084 328.226C178.774 330.427 180.664 333.751 183.99 334.859" stroke-linecap="round" />
</svg>