<svg xmlns="http://www.w3.org/2000/svg" width="100%" height="100%" viewBox="0 0 273 368" fill="none" stroke="currentColor">
<path d="M6.08543 121.477C11.5484 121.477 15.86 120.687 21.0938 118.797C34.9237 113.803 49.6521 111.598 63.9749 108.479C104.442 99.6677 145.19 90.6541 185.047 79.2663C204.582 73.6848 224.73 69.2128 243.673 61.8459C250.83 59.0628 260.962 59.5651 266.588 53.9397" stroke-linecap="round" />
<path d="M137.543 6.90453C137.543 12.4766 140.895 20.0439 142.635 25.263C147.495 39.8446 154.9 53.1005 161.395 66.938C175.004 95.9313 191.026 123.484 205.08 152.231C214.629 171.762 226.153 190.155 235.834 209.518C236.739 211.327 241.935 219.166 238.179 219.166C226.244 219.166 213.867 213.054 202.668 209.518" stroke-linecap="round" />
<path d="M48.2965 281.879C64.1187 307.591 83.635 336.181 114.628 344.593C129.499 348.629 144.702 355.224 159.854 357.859C163.947 358.571 182.235 364.957 184.578 360.271" stroke-linecap="round" />
</svg>