<svg xmlns="http://www.w3.org/2000/svg" width="100%" height="100%" viewBox="0 0 421 317" fill="none" stroke="currentColor">
<path d="M6.57789 156.307C4.94283 158.175 14.6708 157.542 16.2261 157.513C33.3426 157.19 50.1479 152.38 66.9464 149.74C96.1695 145.148 125.622 141.964 154.92 137.948C190.317 133.097 225.704 126.22 260.916 120.126C308.826 111.833 452.815 88.7681 404.568 94.799" stroke-linecap="round" />
<path d="M302.055 6.75879C299.219 9.94912 300.849 17.6161 300.849 21.3652C300.849 36.4995 298.134 51.0881 295.087 65.8543C288.45 98.0209 284.426 129.746 274.317 161.198C270.815 172.091 270.114 184.031 265.874 194.631C264.689 197.595 262.357 199.798 261.05 202.739C260.073 204.937 260.123 207.345 258.906 209.372C258.148 210.635 255.143 204.632 254.752 204.012C250.374 197.063 245.532 190.563 240.548 184.045" stroke-linecap="round" />
<path d="M104.266 58.6181C104.447 60.4247 105.341 61.9744 106.142 63.5762C108.92 69.1318 109.968 74.822 110.899 80.9296C113.049 95.0209 116.648 108.627 119.677 122.538C125.616 149.813 130.085 177.027 134.417 204.548C140.367 242.347 147.026 288.106 187.482 303.71C216.303 314.827 247.974 308.688 277.935 308.266C290.78 308.085 302.559 305.854 315.322 305.854" stroke-linecap="round" />
</svg>