<svg xmlns="http://www.w3.org/2000/svg" width="100%" height="100%" viewBox="0 0 261 393" fill="none" stroke="currentColor">
<path d="M88.3317 14.7889C85.4525 15.1488 84.8121 16.686 87.3936 18.407C93.4318 22.4325 99.5782 23.2312 106.69 23.2312C128.748 23.2312 150.603 14.7775 172.486 12.1089C181.961 10.9533 191.839 8.68668 201.162 6.61474C206.99 5.31967 198.14 10.4895 196.874 11.4389C188.384 17.8064 179.595 23.1576 171.548 30.1993C157.98 42.0708 144.968 54.9802 132.352 67.8543C118.561 81.9261 103.912 95.1517 90.2747 109.395C78.8918 121.284 67.9557 133.372 55.0988 143.767C44.11 152.652 33.0951 162.278 21.464 170.3C18.2177 172.539 7.71535 177.583 6.52262 181.757C6.18644 182.934 22.5725 176.651 23.407 176.33C41.9123 169.213 61.2076 162.033 80.4255 157.168C125.835 145.671 171.896 137.6 217.779 128.424C229.557 126.068 241.548 125.58 253.29 123.064C256.484 122.379 253.398 122.605 251.816 123.332C248.097 125.04 244.108 126.403 240.291 127.888C212.371 138.746 184.971 155.312 163.374 176.129C146.244 192.639 129.169 211.003 122.101 234.286C119.935 241.419 121.719 248.756 120.626 255.995C119.345 264.482 118.449 274.676 120.358 283.131C126.306 309.468 137.199 335.292 146.824 360.317C148.809 365.477 151.265 369.856 153.457 374.789C154.566 377.284 157.646 385.326 159.487 386.246" stroke-linecap="round" />
</svg>