<svg xmlns="http://www.w3.org/2000/svg" width="100%" height="100%" viewBox="0 0 371 392" fill="none" stroke="currentColor">
<path d="M6.63818 133.447C26.6435 133.447 46.5939 132.937 66.4707 130.365C92.8264 126.954 119.056 121.811 145.332 117.769C172.797 113.543 200.388 110.208 227.811 105.776C259.751 100.613 291.809 95.9213 323.824 91.2362C335.34 89.551 347.07 85.9977 358.665 85.273C361.097 85.121 367.632 85.4666 363.623 82.794" stroke-linecap="round" />
<path d="M241.814 6.81407C235.596 7.20271 240.387 36.196 240.541 40.5159C241.339 62.8682 240.633 85.5581 239.134 107.853C237.613 130.475 236.253 153.043 234.578 175.658C233.031 196.538 230.96 217.422 230.96 238.372C230.96 247.091 231.337 295.909 211.395 280.047C197.424 268.934 176.371 244.59 179.369 225.106C180.691 216.512 188.037 208.869 194.779 204C199.429 200.642 207.528 192.284 214.075 194.017C222.385 196.216 225.773 209.796 226.203 216.663C226.904 227.888 230.778 238.92 230.96 250.164C231.29 270.65 232.542 293.424 224.93 312.878C213.312 342.569 188.746 364.359 165.834 385.508" stroke-linecap="round" />
</svg>