<svg xmlns="http://www.w3.org/2000/svg" width="100%" height="100%" viewBox="0 0 317 341" fill="none" stroke="currentColor">
<path d="M6.73367 80.3869C10.3106 83.5664 18.741 81.1179 22.6801 80.3869C40.0673 77.1604 57.8035 72.9129 74.8744 68.3266C94.1003 63.1615 151.047 45.1469 132.161 51.4422" stroke-linecap="round" />
<path d="M97.1859 6.81909C95.2141 7.06557 92.7976 19.8624 92.2948 21.5595C86.1319 42.3592 78.3813 62.478 71.5913 83.067C56.7304 128.129 44.5256 175.451 35.7454 222.095C31.98 242.099 28.2382 261.899 23.8861 281.794C21.4534 292.915 17.5327 303.825 15.2429 314.893C14.2941 319.478 12.8969 324.841 12.7638 329.499C12.5261 337.819 13.8633 333.29 16.3819 327.623" stroke-linecap="round" />
<path d="M196.08 126.216C197.153 122.997 206.652 120.804 209.414 119.583C219.203 115.253 229.819 112.113 240.168 109.399C257.438 104.869 277.097 103.05 294.975 103.302C296.982 103.33 310.738 104.997 304.02 108.729C300.443 110.716 296.504 111.965 292.563 112.95" stroke-linecap="round" />
<path d="M177.99 275.764C182.911 276.256 186.779 280.735 189.782 284.206C194.581 289.751 200.847 293.841 207.203 297.472C220.865 305.279 236.238 313.542 251.558 317.372C264.661 320.648 277.574 324.371 290.821 327.02C296.938 328.244 305.008 330.446 310.653 327.623" stroke-linecap="round" />
</svg>