<svg xmlns="http://www.w3.org/2000/svg" width="100%" height="100%" stroke="currentColor" viewBox="0 0 301 335" fill="none">
<path d="M7.78894 73.6533C5.37253 73.6533 6.00404 73.7266 8.05695 73.6533C13.9441 73.443 20.2366 71.9905 25.9464 70.6382C43.9245 66.3802 62.2386 63.6272 80.1507 59.1809C137.212 45.0166 194.903 34.4907 251.407 17.9079C264.31 14.1211 277.754 8.73444 291.072 7.25461C298.272 6.45463 293.352 7.00835 288.526 8.79565C281.557 11.3768 273.963 19.2104 269.43 24.876C259.021 37.8883 245.563 48.9079 233.317 60.1189C219.285 72.965 204.826 89.9053 194.188 105.68C184.49 120.059 175.491 135.201 171.809 152.313C169.305 163.951 166.603 178.205 168.794 190.035C171.122 202.605 170.023 215.828 174.489 228.025C182.878 250.934 192.707 274.289 205.31 295.295C209.224 301.818 213.312 308.307 217.035 314.926C218.974 318.374 222.774 326.472 226.08 328.126" stroke-linecap="round" />
</svg>