<svg xmlns="http://www.w3.org/2000/svg" width="100%" height="100%" stroke="currentColor" viewBox="0 0 249 315" fill="none">
<path d="M7.26633 6.11559C3.73435 8.23477 15.5558 21.4186 17.5846 24.34C26.6735 37.4281 36.1748 50.4607 43.4472 64.675C49.8199 77.1308 57.6372 89.577 65.1558 101.392C68.4285 106.535 72.2317 116.213 78.4221 118.276" stroke-linecap="round" />
<path d="M242.442 15.7638C241.786 21.6688 223.036 30.7607 218.255 33.8543C202.283 44.1889 187.131 55.8541 171.286 66.4171C152.761 78.7671 133.064 88.9699 114.603 101.392C97.4317 112.946 82.6044 126.489 68.1038 141.191C56.9201 152.53 45.9608 165.503 36.8811 178.578C29.0329 189.879 19.1835 206.026 16.3785 219.65C11.702 242.365 11.5956 267.62 29.5779 284.039C44.244 297.429 63.9134 302.492 83.2462 304.943C101.385 307.242 127.424 312.437 144.821 304.608C151.295 301.695 158.483 301.142 165.256 299.449C170.305 298.187 175.843 296.129 180.935 295.563C184.261 295.193 187.323 292.126 190.583 291.945C192.191 291.855 197.26 289.533 196.613 289.533" stroke-linecap="round" />
</svg>