<svg xmlns="http://www.w3.org/2000/svg" width="100%" height="100%" stroke="currentColor" viewBox="0 0 363 330" fill="none">
<path d="M98.005 6.70352C98.005 23.6524 102.099 39.4661 103.767 56.1508C107.716 95.6351 99.1593 134.739 97.067 174.074C95.863 196.71 94.0044 218.79 91.5059 241.276C89.3738 260.465 89.9311 280.196 88.6248 299.501C88.0976 307.292 88.0384 315.657 85.8777 323.219C85.5166 324.483 83.9751 323.178 83.5327 322.683C81.6542 320.584 82.3266 316.806 82.3266 314.241" stroke-linecap="round" />
<path d="M8.75879 140.573C9.17672 137.229 22.8116 130.24 25.2412 128.379C47.8269 111.079 71.2135 94.872 95.325 79.8023C102.582 75.2665 109.664 70.4219 117.034 66.067C121.32 63.5342 116.262 68.0449 115.358 68.9481C95.675 88.6315 83.4587 115.423 67.7873 138.295C49.6833 164.717 32.7385 192.42 17.469 220.573C14.2798 226.453 11.5683 232.976 8.15578 238.663C5.56427 242.982 7.40537 235.778 7.82077 234.643C16.5969 210.678 33.3557 190.068 49.4958 170.724C71.657 144.163 95.8015 121.648 124.538 102.248C168.684 72.4433 226.071 50.4908 280.049 59.1658C309.225 63.8549 346.544 85.759 353.08 116.988C359.175 146.106 357.04 177.336 344.973 204.76C336.383 224.283 325.258 241.225 311.472 257.558C292.742 279.749 265.923 290.134 241.523 304.593" stroke-linecap="round" />
</svg>