<svg xmlns="http://www.w3.org/2000/svg" width="100%" height="100%" stroke="currentColor" viewBox="0 0 240 412" fill="none">
<path d="M6.79398 97.1206C38.0829 97.1206 68.4529 89.1788 98.1843 79.0302C124.004 70.2169 150.949 65.0097 176.643 56.1156C180.133 54.9075 192.073 50.0854 181.668 50.0854" stroke-linecap="round" />
<path d="M121.367 6.66833C123.027 19.9467 121.175 32.0826 117.146 45.3953C108.446 74.1438 99.5228 101.618 86.392 128.745C73.3938 155.599 57.0231 182.963 38.8208 206.668C36.9318 209.128 22.3193 230.859 33.9967 220.739C59.9829 198.217 95.8721 211.391 120.161 229.851C135.258 241.324 147.766 258.621 156.074 275.613C159.227 282.062 159.858 289.194 162.372 295.848C164.053 300.297 163.578 298.954 163.578 294.91" stroke-linecap="round" />
<path d="M233.528 146.568C231.961 146.764 228.419 153.614 227.229 155.01C219.212 164.421 209.04 171.999 199.089 179.198C171.057 199.476 142.027 217.98 116.543 241.576C93.5334 262.881 75.6483 288.658 61.6683 316.618C51.4516 337.051 47.6388 356.772 54.4321 378.662C58.9922 393.355 66.8356 400.946 82.5058 403.184C98.8859 405.524 116.223 405.864 132.757 405.864C146.428 405.864 158.851 404.851 172.288 402.514C176.869 401.718 192.416 403.665 194.935 398.628" stroke-linecap="round" />
</svg>