<svg xmlns="http://www.w3.org/2000/svg" width="100%" height="100%" stroke="currentColor" viewBox="0 0 370 379" fill="none">
<path d="M6.78894 138.216C15.2802 146.707 32.2609 134.55 41.1608 131.583C67.742 122.723 93.8039 112.934 120.156 103.174C150.999 91.7506 181.645 79.9391 213.69 72.1524C241.415 65.4155 269.447 65.2833 297.71 65.8543C319.745 66.2994 337.329 72.3408 350.508 90.6449C361.311 105.65 367.263 125.394 361.965 143.643C354.854 168.135 334.037 184.957 312.183 196.776C296.923 205.028 278.704 205.035 262.333 200.26C251.351 197.056 240.486 193.962 230.575 188.065C217.968 180.565 212.471 172.154 208.196 158.719" stroke-linecap="round" />
<path d="M254.025 6.75879C254.389 9.66983 262.644 15.8393 264.611 17.6131C272.85 25.0412 278.294 35.611 281.764 46.0218C287.234 62.4336 265.161 57.2836 256.437 53.794" stroke-linecap="round" />
<path d="M85.1809 23.6432C85.4428 26.2621 87.4311 27.928 88.531 30.2094C91.6774 36.7352 93.759 44.4781 95.9682 51.3819C100.63 65.9504 104.248 81.1351 107.827 96.005C114.846 125.16 118.491 155.27 127.124 184.045C135.473 211.874 140.331 240.868 149.101 268.467C159.84 302.265 167.511 337.669 175.633 372.186" stroke-linecap="round" />
</svg>