<svg xmlns="http://www.w3.org/2000/svg" width="100%" height="100%" stroke="currentColor" viewBox="0 0 226 378" fill="none">
<path d="M114.809 90.4121C114.166 90.4121 111.796 90.2285 112.665 91.6181C114.204 94.0802 121.789 92.8625 124.055 92.7571C140.995 91.9692 155.824 84.4615 171.76 79.5578C186.31 75.0809 200.826 70.9125 214.709 64.5494C221.441 61.4637 217.335 60.2613 212.498 60.2613" stroke-linecap="round" />
<path d="M113.603 5.98994C113.603 23.008 112.629 39.9412 111.459 56.9112C109.842 80.3542 111.191 104.305 111.191 127.799C111.191 154.453 113.603 180.979 113.603 207.665C113.603 230.138 113.136 252.558 110.923 274.935C107.732 307.2 109.575 341.676 84.6583 366.593C76.2645 374.987 61.09 371.788 51.1575 367.531C37.3794 361.626 23.9011 349.113 15.9816 336.442C9.01942 325.303 5.27825 312.914 6.33333 299.725C7.06142 290.624 16.9029 291.343 23.6868 291.886C34.7045 292.768 46.0521 300.547 56.2496 304.415C68.6765 309.129 80.9114 314.225 93.1005 319.558C120.474 331.534 150.987 334.227 178.059 347.296C186.991 351.609 196.198 355.912 205.194 359.96C208.13 361.281 221.309 371.689 219.734 365.387" stroke-linecap="round" />
</svg>