<svg xmlns="http://www.w3.org/2000/svg" width="100%" height="100%" stroke="currentColor" viewBox="0 0 329 405" fill="none">
<path d="M6.32161 96.7085C6.32161 108.885 9.35198 121.322 9.8727 133.559C10.8552 156.649 10.6444 179.789 12.3518 202.839C13.5471 218.976 18.4424 234.605 20.794 250.477C20.9724 251.682 22.8452 262.605 24.1441 262.605C24.1942 262.605 24.955 253.379 25.0821 252.889C30.2242 233.056 43.9918 215.119 56.9079 199.824C73.7046 179.933 92.6637 160.658 113.055 144.414C148.11 116.489 187.138 87.0247 232.452 79.2881C247.197 76.7707 264.631 76.3752 279.152 79.8241C292.669 83.0344 301.281 90.3327 309.035 101.533C316.846 112.815 322.104 124.72 322.301 138.92C322.411 146.792 321.915 154.086 320.559 161.834C318.834 171.692 319.76 180.843 316.271 190.511C308.382 212.377 298.189 230.634 282.503 247.73C268.851 262.609 253.895 281.154 235.199 289.673C228.608 292.677 222.421 297.347 215.635 299.791C211.521 301.272 207.082 301.047 202.905 302.002C190.764 304.777 176.504 303.168 164.312 301.734" stroke-linecap="round" />
<path d="M176.372 8.66835C177.076 2.33179 182.042 13.568 184.077 16.5075C186.191 19.5614 186.02 23.8619 186.02 27.3618C186.02 34.6813 186.835 41.7836 187.159 49.0704C189.308 97.4265 188.432 145.958 188.432 194.397C188.432 228.073 188.11 261.631 183.876 295.033C181.828 311.19 180.157 326.179 173.692 341.265C163.894 364.127 143.459 381.461 125.719 398.216" stroke-linecap="round" />
</svg>