<?xml version="1.0" encoding="UTF-8" standalone="no"?>
<svg
   width="100%"
   height="100%"
   viewBox="0 0 545.27301 77"
   fill="none"
   version="1.1"
   id="svg3"
   xmlns="http://www.w3.org/2000/svg"
   xmlns:svg="http://www.w3.org/2000/svg">
  <defs
     id="defs3" />
  <g
     id="g3">
    <path
       d="M 108.646,44.875 V 63.66 c -0.623,0.17 -1.615,0.34 -2.975,0.51 -1.36,0.17 -2.691,0.255 -3.995,0.255 -1.303,0 -2.4647,-0.1133 -3.4847,-0.34 -0.9633,-0.17 -1.785,-0.51 -2.465,-1.02 -0.68,-0.51 -1.19,-1.2183 -1.53,-2.125 -0.34,-0.9067 -0.51,-2.0967 -0.51,-3.57 V 12.49 c 0.6234,-0.1133 1.615,-0.255 2.975,-0.425 1.36,-0.2267 2.6634,-0.34 3.9097,-0.34 1.304,0 2.437,0.1133 3.4,0.34 1.02,0.17 1.87,0.51 2.55,1.02 0.68,0.51 1.19,1.2183 1.53,2.125 0.34,0.9067 0.51,2.0967 0.51,3.57 v 13.515 l 17.68,-20.315 c 3.854,0 6.602,0.7367 8.245,2.21 1.7,1.4167 2.55,3.1167 2.55,5.1 0,1.4733 -0.368,2.8617 -1.105,4.165 -0.736,1.3033 -1.926,2.7767 -3.57,4.42 L 121.736,38.5 c 1.417,1.5867 2.89,3.23 4.42,4.93 1.587,1.7 3.117,3.3717 4.59,5.015 1.53,1.5867 2.975,3.1167 4.335,4.59 1.417,1.4733 2.635,2.7483 3.655,3.825 0,1.2467 -0.226,2.3517 -0.68,3.315 -0.453,0.9633 -1.076,1.785 -1.87,2.465 -0.736,0.68 -1.586,1.19 -2.55,1.53 -0.963,0.34 -1.983,0.51 -3.06,0.51 -2.323,0 -4.221,-0.5667 -5.695,-1.7 -1.473,-1.19 -2.89,-2.5783 -4.25,-4.165 z m 52.635,9.945 c 0.964,0 2.012,-0.085 3.145,-0.255 1.19,-0.2267 2.069,-0.51 2.635,-0.85 v -6.8 l -6.12,0.51 c -1.586,0.1133 -2.89,0.4533 -3.91,1.02 -1.02,0.5667 -1.53,1.4167 -1.53,2.55 0,1.1333 0.425,2.0683 1.275,2.805 0.907,0.68 2.409,1.02 4.505,1.02 z m -0.68,-33.405 c 3.06,0 5.837,0.3117 8.33,0.935 2.55,0.6233 4.704,1.5867 6.46,2.89 1.814,1.2467 3.202,2.8617 4.165,4.845 0.964,1.9267 1.445,4.2217 1.445,6.885 v 19.04 c 0,1.4733 -0.425,2.6917 -1.275,3.655 -0.793,0.9067 -1.756,1.7 -2.89,2.38 -3.683,2.21 -8.868,3.315 -15.555,3.315 -3.003,0 -5.723,-0.2833 -8.16,-0.85 -2.38,-0.5667 -4.448,-1.4167 -6.205,-2.55 -1.7,-1.1333 -3.031,-2.5783 -3.995,-4.335 -0.906,-1.7567 -1.36,-3.7967 -1.36,-6.12 0,-3.91 1.162,-6.9133 3.485,-9.01 2.324,-2.0967 5.922,-3.4 10.795,-3.91 l 11.135,-1.19 V 36.8 c 0,-1.6433 -0.736,-2.805 -2.21,-3.485 -1.416,-0.7367 -3.485,-1.105 -6.205,-1.105 -2.153,0 -4.25,0.2267 -6.29,0.68 -2.04,0.4533 -3.881,1.02 -5.525,1.7 -0.736,-0.51 -1.36,-1.275 -1.87,-2.295 -0.51,-1.0767 -0.765,-2.1817 -0.765,-3.315 0,-1.4733 0.34,-2.635 1.02,-3.485 0.737,-0.9067 1.842,-1.6717 3.315,-2.295 1.644,-0.6233 3.57,-1.0767 5.78,-1.36 2.267,-0.2833 4.392,-0.425 6.375,-0.425 z m 54.141,16.405 c 0,-1.7567 -0.51,-3.0317 -1.53,-3.825 -0.964,-0.85 -2.295,-1.275 -3.995,-1.275 -1.134,0 -2.267,0.1417 -3.4,0.425 -1.077,0.2833 -2.012,0.7083 -2.805,1.275 v 29.495 c -0.567,0.17 -1.474,0.34 -2.72,0.51 -1.19,0.17 -2.437,0.255 -3.74,0.255 -1.247,0 -2.38,-0.085 -3.4,-0.255 -0.964,-0.17 -1.785,-0.51 -2.465,-1.02 -0.68,-0.51 -1.219,-1.19 -1.615,-2.04 -0.34,-0.9067 -0.51,-2.0683 -0.51,-3.485 v -25.5 c 0,-1.53 0.311,-2.7767 0.935,-3.74 0.68,-0.9633 1.586,-1.8417 2.72,-2.635 1.926,-1.36 4.335,-2.465 7.225,-3.315 2.946,-0.85 6.205,-1.275 9.775,-1.275 6.403,0 11.333,1.4167 14.79,4.25 3.456,2.7767 5.185,6.6583 5.185,11.645 v 26.605 c -0.567,0.17 -1.474,0.34 -2.72,0.51 -1.19,0.17 -2.437,0.255 -3.74,0.255 -1.247,0 -2.38,-0.085 -3.4,-0.255 -0.964,-0.17 -1.785,-0.51 -2.465,-1.02 -0.68,-0.51 -1.219,-1.19 -1.615,-2.04 -0.34,-0.9067 -0.51,-2.0683 -0.51,-3.485 z m 39.78,17 c 0.964,0 2.012,-0.085 3.145,-0.255 1.19,-0.2267 2.069,-0.51 2.635,-0.85 v -6.8 l -6.12,0.51 c -1.586,0.1133 -2.89,0.4533 -3.91,1.02 -1.02,0.5667 -1.53,1.4167 -1.53,2.55 0,1.1333 0.425,2.0683 1.275,2.805 0.907,0.68 2.409,1.02 4.505,1.02 z m -0.68,-33.405 c 3.06,0 5.837,0.3117 8.33,0.935 2.55,0.6233 4.704,1.5867 6.46,2.89 1.814,1.2467 3.202,2.8617 4.165,4.845 0.964,1.9267 1.445,4.2217 1.445,6.885 v 19.04 c 0,1.4733 -0.425,2.6917 -1.275,3.655 -0.793,0.9067 -1.756,1.7 -2.89,2.38 -3.683,2.21 -8.868,3.315 -15.555,3.315 -3.003,0 -5.723,-0.2833 -8.16,-0.85 -2.38,-0.5667 -4.448,-1.4167 -6.205,-2.55 -1.7,-1.1333 -3.031,-2.5783 -3.995,-4.335 -0.906,-1.7567 -1.36,-3.7967 -1.36,-6.12 0,-3.91 1.162,-6.9133 3.485,-9.01 2.324,-2.0967 5.922,-3.4 10.795,-3.91 l 11.135,-1.19 V 36.8 c 0,-1.6433 -0.736,-2.805 -2.21,-3.485 -1.416,-0.7367 -3.485,-1.105 -6.205,-1.105 -2.153,0 -4.25,0.2267 -6.29,0.68 -2.04,0.4533 -3.881,1.02 -5.525,1.7 -0.736,-0.51 -1.36,-1.275 -1.87,-2.295 -0.51,-1.0767 -0.765,-2.1817 -0.765,-3.315 0,-1.4733 0.34,-2.635 1.02,-3.485 0.737,-0.9067 1.842,-1.6717 3.315,-2.295 1.644,-0.6233 3.57,-1.0767 5.78,-1.36 2.267,-0.2833 4.392,-0.425 6.375,-0.425 z m 55.331,1.445 c -4.364,0 -7.707,1.3317 -10.03,3.995 -2.324,2.6633 -3.485,6.4317 -3.485,11.305 0,4.93 1.275,8.7267 3.825,11.39 2.606,2.6633 6.091,3.995 10.455,3.995 2.323,0 4.278,-0.3117 5.865,-0.935 1.643,-0.6233 3.201,-1.3317 4.675,-2.125 0.963,0.7933 1.7,1.7567 2.21,2.89 0.566,1.0767 0.85,2.3517 0.85,3.825 0,2.3233 -1.304,4.3067 -3.91,5.95 -2.55,1.5867 -6.46,2.38 -11.73,2.38 -3.797,0 -7.367,-0.5383 -10.71,-1.615 -3.344,-1.0767 -6.262,-2.72 -8.755,-4.93 -2.494,-2.2667 -4.477,-5.1 -5.95,-8.5 -1.417,-3.4567 -2.125,-7.565 -2.125,-12.325 0,-4.42 0.68,-8.3017 2.04,-11.645 1.416,-3.4 3.315,-6.2617 5.695,-8.585 2.436,-2.3233 5.27,-4.08 8.5,-5.27 3.23,-1.19 6.686,-1.785 10.37,-1.785 5.213,0 9.236,0.85 12.07,2.55 2.89,1.7 4.335,3.8817 4.335,6.545 0,1.4733 -0.369,2.7483 -1.105,3.825 -0.737,1.0767 -1.587,1.9267 -2.55,2.55 -1.474,-0.9633 -3.06,-1.785 -4.76,-2.465 -1.644,-0.68 -3.57,-1.02 -5.78,-1.02 z m 37.594,31.96 c 0.964,0 2.012,-0.085 3.145,-0.255 1.19,-0.2267 2.069,-0.51 2.635,-0.85 v -6.8 l -6.12,0.51 c -1.586,0.1133 -2.89,0.4533 -3.91,1.02 -1.02,0.5667 -1.53,1.4167 -1.53,2.55 0,1.1333 0.425,2.0683 1.275,2.805 0.907,0.68 2.409,1.02 4.505,1.02 z m -0.68,-33.405 c 3.06,0 5.837,0.3117 8.33,0.935 2.55,0.6233 4.704,1.5867 6.46,2.89 1.814,1.2467 3.202,2.8617 4.165,4.845 0.964,1.9267 1.445,4.2217 1.445,6.885 v 19.04 c 0,1.4733 -0.425,2.6917 -1.275,3.655 -0.793,0.9067 -1.756,1.7 -2.89,2.38 -3.683,2.21 -8.868,3.315 -15.555,3.315 -3.003,0 -5.723,-0.2833 -8.16,-0.85 -2.38,-0.5667 -4.448,-1.4167 -6.205,-2.55 -1.7,-1.1333 -3.031,-2.5783 -3.995,-4.335 -0.906,-1.7567 -1.36,-3.7967 -1.36,-6.12 0,-3.91 1.162,-6.9133 3.485,-9.01 2.324,-2.0967 5.922,-3.4 10.795,-3.91 l 11.135,-1.19 V 36.8 c 0,-1.6433 -0.736,-2.805 -2.21,-3.485 -1.416,-0.7367 -3.485,-1.105 -6.205,-1.105 -2.153,0 -4.25,0.2267 -6.29,0.68 -2.04,0.4533 -3.881,1.02 -5.525,1.7 -0.736,-0.51 -1.36,-1.275 -1.87,-2.295 -0.51,-1.0767 -0.765,-2.1817 -0.765,-3.315 0,-1.4733 0.34,-2.635 1.02,-3.485 0.737,-0.9067 1.842,-1.6717 3.315,-2.295 1.644,-0.6233 3.57,-1.0767 5.78,-1.36 2.267,-0.2833 4.392,-0.425 6.375,-0.425 z m 54.141,16.405 c 0,-1.7567 -0.51,-3.0317 -1.53,-3.825 -0.964,-0.85 -2.295,-1.275 -3.995,-1.275 -1.134,0 -2.267,0.1417 -3.4,0.425 -1.077,0.2833 -2.012,0.7083 -2.805,1.275 v 29.495 c -0.567,0.17 -1.474,0.34 -2.72,0.51 -1.19,0.17 -2.437,0.255 -3.74,0.255 -1.247,0 -2.38,-0.085 -3.4,-0.255 -0.964,-0.17 -1.785,-0.51 -2.465,-1.02 -0.68,-0.51 -1.219,-1.19 -1.615,-2.04 -0.34,-0.9067 -0.51,-2.0683 -0.51,-3.485 v -25.5 c 0,-1.53 0.311,-2.7767 0.935,-3.74 0.68,-0.9633 1.586,-1.8417 2.72,-2.635 1.926,-1.36 4.335,-2.465 7.225,-3.315 2.946,-0.85 6.205,-1.275 9.775,-1.275 6.403,0 11.333,1.4167 14.79,4.25 3.456,2.7767 5.185,6.6583 5.185,11.645 v 26.605 c -0.567,0.17 -1.474,0.34 -2.72,0.51 -1.19,0.17 -2.437,0.255 -3.74,0.255 -1.247,0 -2.38,-0.085 -3.4,-0.255 -0.964,-0.17 -1.785,-0.51 -2.465,-1.02 -0.68,-0.51 -1.219,-1.19 -1.615,-2.04 -0.34,-0.9067 -0.51,-2.0683 -0.51,-3.485 z m 48.646,25.075 c -0.793,0.6233 -1.955,1.1333 -3.485,1.53 -1.53,0.3967 -3.258,0.595 -5.185,0.595 -2.21,0 -4.137,-0.2833 -5.78,-0.85 -1.587,-0.5667 -2.692,-1.4733 -3.315,-2.72 -0.51,-0.9633 -1.133,-2.295 -1.87,-3.995 -0.68,-1.7567 -1.417,-3.6833 -2.21,-5.78 -0.793,-2.1533 -1.615,-4.4483 -2.465,-6.885 -0.85,-2.4367 -1.672,-4.845 -2.465,-7.225 -0.737,-2.38 -1.417,-4.675 -2.04,-6.885 -0.623,-2.21 -1.133,-4.165 -1.53,-5.865 0.793,-0.7933 1.842,-1.4733 3.145,-2.04 1.36,-0.6233 2.833,-0.935 4.42,-0.935 1.983,0 3.598,0.425 4.845,1.275 1.303,0.7933 2.267,2.3233 2.89,4.59 l 3.315,13.005 c 0.623,2.55 1.218,4.8733 1.785,6.97 0.567,2.04 0.992,3.6267 1.275,4.76 h 0.425 c 1.077,-4.1933 2.21,-8.84 3.4,-13.94 1.19,-5.1 2.267,-10.115 3.23,-15.045 0.963,-0.51 2.04,-0.9067 3.23,-1.19 1.247,-0.2833 2.437,-0.425 3.57,-0.425 1.983,0 3.655,0.425 5.015,1.275 1.36,0.85 2.04,2.3233 2.04,4.42 0,0.9067 -0.227,2.2383 -0.68,3.995 -0.397,1.7 -0.935,3.655 -1.615,5.865 -0.623,2.1533 -1.388,4.4483 -2.295,6.885 -0.85,2.4367 -1.728,4.8167 -2.635,7.14 -0.907,2.3233 -1.813,4.505 -2.72,6.545 -0.85,1.9833 -1.615,3.6267 -2.295,4.93 z m 34.268,-8.075 c 0.964,0 2.012,-0.085 3.145,-0.255 1.19,-0.2267 2.069,-0.51 2.635,-0.85 v -6.8 l -6.12,0.51 c -1.586,0.1133 -2.89,0.4533 -3.91,1.02 -1.02,0.5667 -1.53,1.4167 -1.53,2.55 0,1.1333 0.425,2.0683 1.275,2.805 0.907,0.68 2.409,1.02 4.505,1.02 z m -0.68,-33.405 c 3.06,0 5.837,0.3117 8.33,0.935 2.55,0.6233 4.704,1.5867 6.46,2.89 1.814,1.2467 3.202,2.8617 4.165,4.845 0.964,1.9267 1.445,4.2217 1.445,6.885 v 19.04 c 0,1.4733 -0.425,2.6917 -1.275,3.655 -0.793,0.9067 -1.756,1.7 -2.89,2.38 -3.683,2.21 -8.868,3.315 -15.555,3.315 -3.003,0 -5.723,-0.2833 -8.16,-0.85 -2.38,-0.5667 -4.448,-1.4167 -6.205,-2.55 -1.7,-1.1333 -3.031,-2.5783 -3.995,-4.335 -0.906,-1.7567 -1.36,-3.7967 -1.36,-6.12 0,-3.91 1.162,-6.9133 3.485,-9.01 2.324,-2.0967 5.922,-3.4 10.795,-3.91 l 11.135,-1.19 V 36.8 c 0,-1.6433 -0.736,-2.805 -2.21,-3.485 -1.416,-0.7367 -3.485,-1.105 -6.205,-1.105 -2.153,0 -4.25,0.2267 -6.29,0.68 -2.04,0.4533 -3.881,1.02 -5.525,1.7 -0.736,-0.51 -1.36,-1.275 -1.87,-2.295 -0.51,-1.0767 -0.765,-2.1817 -0.765,-3.315 0,-1.4733 0.34,-2.635 1.02,-3.485 0.737,-0.9067 1.842,-1.6717 3.315,-2.295 1.644,-0.6233 3.57,-1.0767 5.78,-1.36 2.267,-0.2833 4.392,-0.425 6.375,-0.425 z m 62.811,30.26 c 0,4.3067 -1.615,7.6783 -4.845,10.115 -3.23,2.4367 -7.99,3.655 -14.28,3.655 -2.38,0 -4.59,-0.17 -6.63,-0.51 -2.04,-0.34 -3.797,-0.85 -5.27,-1.53 -1.417,-0.7367 -2.55,-1.6433 -3.4,-2.72 -0.794,-1.0767 -1.19,-2.3517 -1.19,-3.825 0,-1.36 0.283,-2.4933 0.85,-3.4 0.566,-0.9633 1.246,-1.7567 2.04,-2.38 1.643,0.9067 3.513,1.7283 5.61,2.465 2.153,0.68 4.618,1.02 7.395,1.02 1.756,0 3.088,-0.255 3.995,-0.765 0.963,-0.51 1.445,-1.19 1.445,-2.04 0,-0.7933 -0.34,-1.4167 -1.02,-1.87 -0.68,-0.4533 -1.814,-0.8217 -3.4,-1.105 l -2.55,-0.51 c -4.93,-0.9633 -8.614,-2.465 -11.05,-4.505 -2.38,-2.0967 -3.57,-5.0717 -3.57,-8.925 0,-2.0967 0.453,-3.995 1.36,-5.695 0.906,-1.7 2.181,-3.1167 3.825,-4.25 1.643,-1.1333 3.598,-2.0117 5.865,-2.635 2.323,-0.6233 4.873,-0.935 7.65,-0.935 2.096,0 4.051,0.17 5.865,0.51 1.87,0.2833 3.485,0.7367 4.845,1.36 1.36,0.6233 2.436,1.445 3.23,2.465 0.793,0.9633 1.19,2.125 1.19,3.485 0,1.3033 -0.255,2.4367 -0.765,3.4 -0.454,0.9067 -1.049,1.6717 -1.785,2.295 -0.454,-0.2833 -1.134,-0.5667 -2.04,-0.85 -0.907,-0.34 -1.899,-0.6233 -2.975,-0.85 -1.077,-0.2833 -2.182,-0.51 -3.315,-0.68 -1.077,-0.17 -2.069,-0.255 -2.975,-0.255 -1.87,0 -3.315,0.2267 -4.335,0.68 -1.02,0.3967 -1.53,1.0483 -1.53,1.955 0,0.6233 0.283,1.1333 0.85,1.53 0.566,0.3967 1.643,0.765 3.23,1.105 l 2.635,0.595 c 5.44,1.2467 9.293,2.975 11.56,5.185 2.323,2.1533 3.485,4.9583 3.485,8.415 z"
       fill="currentColor"
       id="path1" />
    <circle
       cx="38.5"
       cy="38.5"
       r="38.5"
       fill="#ff0000"
       id="circle1" />
    <path
       d="M 25.6107,57.4144 54.4854,28.5397 48.7105,22.7648 19.8358,51.6395 16.9483,60.3019 Z"
       fill="#ffffff"
       id="path2" />
    <path
       d="m 49.8655,21.6097 5.7749,5.775 4.62,-4.62 -5.775,-5.7749 z"
       fill="#ffffff"
       id="path3" />
  </g>
</svg>
