<svg xmlns="http://www.w3.org/2000/svg" width="100%" height="100%" viewBox="0 0 353 313" fill="none" stroke="currentColor">
<path d="M6.26836 18.8217C14.1733 19.3158 21.352 18.177 29.9315 17.2995C59.1715 14.3091 89.243 12.9788 118.634 12.5946C155.164 12.1171 191.477 6.36745 227.954 6.36745C251.213 6.36745 274.305 7.61287 297.56 7.61287C305.123 7.61287 312.436 9.23681 320.047 8.78911C325.761 8.45301 330.143 7.34996 335.684 9.48101C338.727 10.6513 352.447 11.3052 343.641 15.7082C327.901 23.5783 313.298 34.1324 299.497 45.0449C285.806 55.8708 272.831 67.491 258.398 77.3568C242.552 88.188 225.898 97.9364 211.764 110.983" stroke-linecap="round" />
<path d="M174.401 67.3934C172.966 67.3934 181.008 68.3269 181.597 68.9156C183.211 70.5294 181.874 79.0888 181.874 81.0931C181.874 89.0732 183.467 98.0739 184.641 106.002C186.084 115.74 186.207 125.98 186.786 135.823C188.077 157.762 184.803 179.469 180.005 200.792C176.258 217.449 169.805 232.419 163.192 248.05C159.514 256.744 156.239 265.701 151.983 274.134C145.741 286.506 136.235 296.278 127.075 306.515" stroke-linecap="round" />
</svg>