<svg xmlns="http://www.w3.org/2000/svg" width="100%" height="100%" viewBox="0 0 403 395" fill="none" stroke="currentColor">
<path d="M222.432 6.90452C215.928 6.90452 223.882 6.69468 226.05 7.84255C229.619 9.73178 220.798 18.2583 219.417 20.1709C192.181 57.8818 152.341 82.8395 112.683 105.799" stroke-linecap="round" />
<path d="M8.96482 191.427C-4.93268 191.427 36.7424 190.221 50.6399 190.221C106.057 190.221 161.088 181.14 216.335 177.625C263.955 174.594 311.602 167.307 359.384 167.307C369.143 167.307 380.157 168.753 389.802 167.039C390.642 166.889 399.625 165.544 396.1 167.307" stroke-linecap="round" />
<path d="M181.427 63.5879C177.81 64.0401 187.623 69.7011 188.663 70.2211C192.486 72.1324 197.117 73.942 198.58 78.3283C204.669 96.5971 204.122 116.344 206.151 135.414C207.843 151.319 209.47 167.049 210.64 182.985C212.004 201.566 215.233 221.08 213.32 239.668C207.857 292.736 181.446 343.171 153.688 388.01" stroke-linecap="round" />
</svg>