<svg xmlns="http://www.w3.org/2000/svg" width="100%" height="100%" viewBox="0 0 371 247" fill="none" stroke="currentColor">
<path d="M60.6181 25.1206C60.6181 20.3196 105.76 22.0784 110.333 21.5025C131.874 18.79 153.426 17.8029 174.923 14.5343C193.14 11.7645 211.553 10.4057 229.931 9.50922C239.987 9.01871 249.798 10.3595 259.613 7.63317C266.603 5.69149 271.025 7.03016 277.704 7.03016" stroke-linecap="round" />
<path d="M176.397 15.4724C174.969 15.6508 178.728 21.8592 179.077 23.9146C180.871 34.4815 177.78 44.7505 179.077 55.2714C182.323 81.5955 182.467 108.954 181.288 135.472C180.505 153.093 181.221 170.898 181.221 188.538C181.221 196.261 179.164 208.97 183.633 215.673" stroke-linecap="round" />
<path d="M8.7588 241C6.51753 239.945 4.46108 239.918 7.82077 239.794C12.7567 239.611 17.8019 237.866 22.7621 237.382C47.4432 234.974 72.1521 232.884 96.799 230.146C125.319 226.977 153.143 222.655 181.891 221.771C205.835 221.034 230.242 220.959 254.186 221.771C272.799 222.401 290.48 226.612 308.792 228.672C318.036 229.712 331.117 228.032 339.747 231.955C347.546 235.5 357.509 232.662 364.538 236.176" stroke-linecap="round" />
</svg>