<svg xmlns="http://www.w3.org/2000/svg" width="100%" height="100%" viewBox="0 0 297 280" fill="none" stroke="currentColor">
<path d="M1.05528 30.3568C-3.38917 30.3568 9.94417 30.3568 14.3886 30.3568C32.7606 30.3568 51.5838 28.4126 69.799 26.1357C97.0262 22.7323 124.408 20.9225 151.675 17.6935C174.341 15.0094 197.131 12.1415 219.95 11.1273C240.578 10.2105 260.781 7.44221 281.457 7.44221C283.246 7.44221 291.549 5.53053 290.503 6.8392C288.702 9.08922 288.996 13.0095 289.363 15.9514C291.497 33.019 286.6 46.3673 283.534 62.9196C280.93 76.9855 274.229 90.5501 267.32 102.987C258.839 118.252 251.451 133.615 242.261 148.548C232.641 164.181 220.797 178.578 209.699 193.171C200.409 205.384 190.581 216.301 179.548 226.94C156.24 249.415 125.094 266.181 93.9196 273.975" stroke-linecap="round" />
</svg>