<svg xmlns="http://www.w3.org/2000/svg" width="100%" height="100%" viewBox="0 0 413 213" fill="none" stroke="currentColor">
<path d="M122.357 6.00504C117.678 6.00504 125.891 9.20841 127.181 9.89113C130.498 11.6474 120.633 28.9455 119.677 31.0637C90.9616 94.6472 56.2278 156.556 6.5779 206.206" stroke-linecap="round" />
<path d="M274.317 14.4472C274.656 20.2254 283.392 21.1104 287.315 24.0955C297.595 31.9172 306.017 40.475 314.719 50.0251C326.951 63.4511 339.481 77.0328 350.296 91.6332C360.284 105.116 367.588 120.658 377.767 133.844C388.26 147.437 395.647 167.284 400.28 183.827C401.735 189.024 401.466 197.419 406.98 200.176" stroke-linecap="round" />
</svg>