<svg xmlns="http://www.w3.org/2000/svg" width="100%" height="100%" viewBox="0 0 382 205" fill="none" stroke="currentColor">
<path d="M10.3467 110.161C-8.01755 130.566 52.4078 74.8371 72.5243 56.1575C91.1318 38.879 110.264 19.3282 133.831 8.85428C137.134 7.38637 137.343 5.9334 141.201 7.64825C145.166 9.41043 148.807 13.2835 152.725 15.4874C170.44 25.4517 185.253 39.2014 200.899 52.0034C220.786 68.2738 239.499 85.4696 260.263 100.513C267.695 105.897 274.82 112.292 282.91 116.66C290.082 120.533 297.144 123.517 303.68 128.519C314.762 137.002 325.057 145.959 335.305 155.387C344.631 163.967 352.961 172.366 360.833 181.987C363.877 185.708 367.298 189.115 370.347 192.841C371.424 194.158 376.728 199.281 374.568 198.201" stroke-linecap="round" />
</svg>