<svg xmlns="http://www.w3.org/2000/svg" width="100%" height="100%" viewBox="0 0 275 340" fill="none" stroke="currentColor">
<path d="M61.7437 145.568C60.0401 145.811 65.2376 146.821 66.5678 146.506C78.345 143.717 90.3274 142.164 102.146 139.538C137.82 131.61 174.542 128.158 210.018 119.035C225.062 115.167 241.538 110.593 257.121 110.593C260.827 110.593 271.681 108.181 267.975 108.181" stroke-linecap="round" />
<path d="M6.26633 6.87437C11.2274 12.3867 17.9347 18.1841 21.8107 24.4288C24.7395 29.1474 23.9621 34.2089 24.6248 39.4372C25.3628 45.2596 26.4941 51.1879 27.4389 56.9916C32.5552 88.4204 32.799 121.027 32.799 152.804C32.799 185.296 29.5369 217.72 34.541 249.889C37.95 271.804 44.6746 297.446 64.1558 310.794C71.3672 315.735 80.1142 323.875 88.8124 325.266C96.8653 326.555 105.077 329.904 113.067 331.833C131.96 336.393 151.524 331.296 170.554 331.296C190.454 331.296 210.823 326.531 230.588 324.06C236.095 323.372 242.118 320.74 247.472 320.442C250.362 320.282 253.548 320.442 248.678 320.442" stroke-linecap="round" />
</svg>