<svg xmlns="http://www.w3.org/2000/svg" width="100%" height="100%" viewBox="0 0 342 440" fill="none" stroke="currentColor">
<path d="M16.8794 149.769C11.3447 152.882 19.6925 152.564 21.9715 151.913C38.7614 147.116 57.7927 147.05 75.0368 144.007C107.956 138.197 141.609 132.474 174.869 129.266C202.994 126.554 231.009 121.348 259.291 120.824C272.366 120.582 286.178 119.09 299.09 116.938C304.248 116.078 309.966 113.783 315.037 113.588C321.426 113.342 340.459 111.176 334.065 111.176" stroke-linecap="round" />
<path d="M156.779 6.25125C156.725 6.25796 162.46 49.8573 162.809 53.9564C163.988 67.8128 163.556 81.6807 164.953 95.4975C166.34 109.213 164.684 122.3 165.288 135.899C166.48 162.723 169.034 189.204 166.695 216.1C165.437 230.572 165.907 245.521 165.288 260.054C164.73 273.178 164.015 286.459 164.015 299.585C164.015 312.849 164.129 326.12 164.015 339.384C163.906 352.084 161.603 364.499 161.603 377.24C161.603 385.107 161.302 392.854 160.129 400.623C159.38 405.585 158.246 411.282 159.794 416.234C161.375 421.294 161.94 427.797 161.603 433.186C161.484 435.09 154.798 424.848 154.3 424.007C144.948 408.226 136.835 392.234 125.422 377.709" stroke-linecap="round" />
<path d="M78.3869 231.779C75.5531 231.956 75.8029 244.15 74.7019 247.591C69.6513 263.374 63.0836 278.523 53.0603 291.812C42.7475 305.486 32.3897 319.292 19.9615 331.142C17.897 333.111 7.8863 343.94 6.02513 343.94" stroke-linecap="round" />
<path d="M253.261 229.367C264.658 230.566 275.253 242.596 282.273 250.539C294.111 263.935 308.916 275.549 318.387 290.874C324.631 300.979 338.171 334.061 332.859 323.437" stroke-linecap="round" />
</svg>