<svg xmlns="http://www.w3.org/2000/svg" width="100%" height="100%" viewBox="0 0 226 369" fill="none" stroke="currentColor">
<path d="M219.164 6.1342C218.091 6.26824 216.661 14.1091 215.789 15.852C209.3 28.8315 199.542 39.7975 189.943 50.5389C164.63 78.8657 134.542 102.499 106.802 128.281C74.01 158.758 41.4003 189.314 6.58789 217.495" stroke-linecap="round" />
<path d="M120.771 121.532C118.873 121.295 120.771 125.597 120.771 128.821C120.771 135.869 120.18 143.196 121.379 150.146C123.906 164.805 123.201 180.786 123.201 195.63C123.201 213.271 124.416 230.886 124.416 248.471C124.416 279.024 123.201 309.37 123.201 339.912C123.201 346.854 121.986 353.443 121.986 360.225C121.986 366.952 124.058 354.795 124.416 353.544" stroke-linecap="round" />
</svg>