<svg xmlns="http://www.w3.org/2000/svg" width="100%" height="100%" viewBox="0 0 288 415" fill="none" stroke="currentColor">
<path d="M6.61809 133.327C3.64382 133.698 14.9005 135.712 16.5343 135.739C33.3432 136.01 49.7625 131.421 66.3166 129.173C116.786 122.319 167.406 117.454 218.142 113.427C237.62 111.881 258.402 110.531 277.975 111.618C284.614 111.987 278.446 142.865 277.975 145.387C276.617 152.657 276.349 159.923 274.357 167.095C271.64 176.878 267.741 186.273 264.977 196.04C262.221 205.776 260.223 215.581 258.41 225.521C256.196 237.661 251.5 248.768 247.891 260.496C237.377 294.665 226.493 329.394 218.343 364.214C215.427 376.673 212.362 392.46 205.881 403.477C205.35 404.381 203.232 409.271 202.531 408.771C200.197 407.103 199.089 403.169 197.573 400.864C188.826 387.57 182.925 373.453 176.668 358.854" stroke-linecap="round" />
<path d="M136.869 6.69347C133.677 6.89301 134.44 8.43825 135.663 10.5796C138.689 15.8738 137.082 25.7454 136.199 31.4171C132.903 52.6087 129.893 74.9186 123.067 95.2697C117.465 111.972 108.809 127.436 103.369 144.181C96.5481 165.175 91.0649 186.371 83.134 207.028C65.4748 253.025 48.0988 299.871 22.2965 341.97" stroke-linecap="round" />
</svg>