<svg xmlns="http://www.w3.org/2000/svg" width="100%" height="100%" viewBox="0 0 360 389" fill="none" stroke="currentColor">
<path d="M102.211 6.28644C101.866 9.04945 103.417 10.4052 103.417 13.5226C103.417 22.6643 99.3914 30.8946 96.7839 39.5193C89.9989 61.9619 80.8549 84.0054 72.0603 105.717C56.5177 144.088 34.6899 177.163 6.93468 207.693" stroke-linecap="round" />
<path d="M80.5025 117.241C67.1641 117.241 107.026 114.378 120.301 113.087C155.608 109.655 190.926 109.875 226.164 105.449C257.408 101.525 289.046 96.7412 320.436 94.3266C331.305 93.4905 342.197 91.9146 353.065 91.9146" stroke-linecap="round" />
<path d="M246.935 110.005C245.677 110.185 249.269 112.143 249.347 113.623C249.583 118.121 248.426 122.656 247.471 127.023C242.931 147.776 239.926 169.085 234.606 189.603C226.377 221.345 210.306 252.158 194.472 280.658C174.594 316.44 152.993 352.378 125.126 382.568" stroke-linecap="round" />
</svg>