<svg xmlns="http://www.w3.org/2000/svg" width="100%" height="100%" viewBox="0 0 264 414" fill="none" stroke="currentColor">
<path d="M8.84255 136.145C0.235459 136.145 17.159 132.778 18.9433 132.357C43.283 126.61 68.1101 123.351 92.4544 117.206C122.951 109.508 154.302 104.992 185.045 98.267C197.012 95.6491 209.889 91.954 222.221 91.954" stroke-linecap="round" />
<path d="M6.31736 261.142C2.88078 261.142 3.02383 261.142 6.38751 261.142C11.312 261.142 15.7257 259.72 20.4865 258.616C49.8038 251.823 78.7642 243.827 107.956 236.591C144.146 227.621 180.982 221.116 216.96 211.339C227.715 208.417 238.709 205.178 249.717 203.343C252.393 202.897 256.301 203.083 257.574 200.537" stroke-linecap="round" />
<path d="M113.638 6.0976C112.545 6.37075 115.998 36.5591 116.093 39.5563C116.855 63.5502 121.133 86.262 127.526 109.35C135.717 138.927 139.345 169.626 147.447 199.275C155.075 227.183 161.957 256.474 163.861 285.412C165.382 308.527 166.329 332.153 169.893 355.065C171.081 362.697 173.251 370.11 174.242 377.791C174.633 380.815 174.86 385.155 176.136 387.962C177.779 391.576 177.48 395.316 179.012 398.764C180.06 401.123 181.818 405.155 181.818 407.603" stroke-linecap="round" />
</svg>