<svg xmlns="http://www.w3.org/2000/svg" width="100%" height="100%" viewBox="0 0 319 260" fill="none" stroke="currentColor">
<path d="M8.05527 34.4724C1.74837 34.4724 20.729 33.9778 26.8827 32.5963C46.3448 28.2273 66.0131 25.8891 85.9112 24.2881C134.635 20.3678 183.44 15.6346 232.243 12.7638C245.401 11.9898 258.484 10.8966 271.64 10.2848C280.058 9.8932 289.77 10.1964 298.039 8.54271C304.569 7.23658 313.236 3.46693 311.908 12.7638C305.187 59.8112 291.301 105.682 274.588 150.251C268.969 165.234 263.02 180.135 261.054 196.08C259.858 205.777 258.171 215.363 256.765 225.025C256.077 229.76 257.875 246.648 252.879 249.146" stroke-linecap="round" />
<path d="M27.3518 253.97C52.1416 253.97 76.8961 247.125 101.59 244.925C142.715 241.26 183.242 239.19 224.471 240.637C237.775 241.103 249.402 244.322 262.528 244.322" stroke-linecap="round" />
</svg>