<svg xmlns="http://www.w3.org/2000/svg" width="100%" height="100%" viewBox="0 0 254 377" fill="none" stroke="currentColor">
<path d="M76.4472 7.66834C73.4211 4.97842 71.7908 9.46263 71.6231 12.0905C70.6532 27.285 62.5397 43.1043 57.1507 57.1156C49.0821 78.0941 39.5133 98.5591 29.4121 118.623C22.0113 133.323 16.0649 149.852 6.49748 163.246" stroke-linecap="round" />
<path d="M77.6533 28.1709C76.4355 29.7945 89.5514 29.3769 91.0536 29.3769C106.76 29.3769 123.074 27.3089 138.625 25.1558C156.175 22.7257 173.893 19.908 191.556 18.5226C201.128 17.7719 210.286 14.9045 219.898 14.9045C228.933 14.9045 237.48 11.9915 246.497 12.4925C250.458 12.7125 243.535 34.5574 243.147 36.6131C239.693 54.9191 235.453 73.0929 230.283 90.9514C226.784 103.04 223.266 114.761 218.759 126.529C213.268 140.867 205.805 154.563 201.271 169.209C191.989 199.2 179.036 227.909 165.961 256.379C148.099 295.273 130.733 335.191 106.598 370.683" stroke-linecap="round" />
</svg>