<svg xmlns="http://www.w3.org/2000/svg" width="100%" height="100%" viewBox="0 0 372 284" fill="none" stroke="currentColor">
<path d="M2.58291 33.9447C-7.64601 33.9447 23.0408 33.9447 33.2697 33.9447C66.1184 33.9447 98.5362 26.978 131.092 23.8275C170.553 20.0087 210.364 19.0201 249.819 15.1843C273.847 12.8482 297.868 8.61809 322.047 8.61809C326.419 8.61809 368.625 2.98638 365.33 12.5042C363.794 16.9426 358.888 22.2229 355.95 25.7705C347.197 36.3399 339.654 47.9718 330.355 58.0653C288.507 103.491 239.785 141.836 194.342 183.492" stroke-linecap="round" />
<path d="M129.216 131.633C129.216 139.937 139.172 146.685 143.688 153.342C152.288 166.015 165.008 174.976 173.303 187.848C181.72 200.908 191.155 213.027 198.228 226.91C201.182 232.708 204.196 238.115 208.144 243.191C211.113 247.008 213.531 253.765 215.782 258.266C218.908 264.518 220.497 271.054 223.286 277.563" stroke-linecap="round" />
</svg>