<svg xmlns="http://www.w3.org/2000/svg" width="100%" height="100%" viewBox="0 0 271 368" fill="none" stroke="currentColor">
<path d="M261.176 6.55276C255.544 6.90474 262.321 9.63992 263.32 10.4389C265.413 12.1132 264.794 14.6771 264.794 17.139C264.794 23.4927 261.737 29.7202 259.97 35.7655C256.308 48.2944 251.465 59.9292 245.229 71.4104C220.358 117.206 190.881 161.759 159.601 203.404C136.59 234.04 112.919 264.022 85.7655 291.176C60.763 316.178 32.836 337.482 6.70352 361.126" stroke-linecap="round" />
<path d="M71.8291 121.126C74.952 123.902 80.851 126.06 84.5595 128.362C96.9935 136.08 107.871 144.962 118.864 154.626C125.159 160.161 132.177 164.655 138.161 170.573C145.66 177.989 152.14 186.33 159.266 194.09C171.954 207.906 180.595 224.255 190.69 239.92C196.93 249.602 202.606 260.051 209.049 269.467C211.743 273.405 213.093 278.372 216.017 282.131C218.97 285.928 222.871 289.34 224.995 293.588" stroke-linecap="round" />
</svg>