<svg xmlns="http://www.w3.org/2000/svg" width="100%" height="100%" viewBox="0 0 171 353" fill="none" stroke="currentColor">
<path d="M9.03517 6.11055C3.2343 6.4731 9.80033 8.46468 11.7152 8.79062C25.1463 11.0768 38.9416 10.3715 52.2513 13.4137C66.5376 16.6792 80.1678 20.4448 94.6633 22.995C104.823 24.7824 115.538 28.6494 125.283 32.1072C133.429 34.9978 143.095 42.295 150.141 47.3836C153.881 50.085 157.973 52.0686 161.598 54.8878C162.674 55.725 165.519 56.7638 164.613 56.7638" stroke-linecap="round" />
<path d="M23.5075 133.95C19.4721 133.95 27.0421 135.181 28.3317 135.826C34.6033 138.962 40.7099 142.184 47.3601 144.536C70.4754 152.711 90.2599 166.015 112.486 175.893C120.062 179.26 129.021 181.686 135.534 187.015C139.238 190.045 143.469 195.272 148.667 195.457C151.255 195.55 151.799 193.136 150.744 191.236C149.085 188.251 144.694 188.595 141.698 188.221" stroke-linecap="round" />
<path d="M9.03517 265.407C6.79889 262.851 17.0458 266.416 18.1474 266.68C28.0029 269.045 37.5418 273.752 47.3601 276.529C59.8391 280.059 70.7714 287.337 81.933 293.749C91.6451 299.328 102.322 305.065 111.012 312.174C120.157 319.657 134.495 327.516 140.76 337.769C143.203 341.766 147.582 344.329 151.347 346.211" stroke-linecap="round" />
</svg>