<svg xmlns="http://www.w3.org/2000/svg" width="100%" height="100%" viewBox="0 0 367 299" fill="none" stroke="currentColor">
<path d="M72.1206 23.7638C71.7604 25.3845 69.4322 25.8005 71.5846 26.7789C74.6189 28.1581 79.8376 28.3392 83.1089 28.5209C92.7264 29.0552 102.434 26.8283 111.92 25.5729C124.993 23.8426 138.08 22.2414 151.183 20.7487C177.402 17.7617 203.686 15.2171 229.843 11.7035C238.624 10.5239 247.497 8.22635 256.375 8.08542C258.724 8.04815 262.769 9.10053 263.879 6.87939" stroke-linecap="round" />
<path d="M8.201 174.518C3.52123 174.81 9.20158 177.434 11.8861 176.26C24.1625 170.889 38.3963 167.844 51.6181 166.075C109.354 158.35 167.556 152.144 225.554 146.779C255.806 143.98 285.701 135.925 316.208 135.925C324.06 135.925 338.42 133.048 345.889 136.193C349.966 137.909 363.579 135.925 359.156 135.925" stroke-linecap="round" />
<path d="M144.482 23.7638C139.488 23.7638 143.155 23.1766 145.018 25.5729C148.787 30.4184 151.925 41.7658 152.657 47.6164C154.298 60.7458 153.111 74.5013 154.131 87.7504C155.5 105.551 156.649 123.739 153.461 141.419C150.498 157.85 146.894 173.412 146.894 190.196C146.894 205.651 146.894 221.106 146.894 236.561C146.894 253.927 153.451 268.432 167.397 278.504C184.598 290.927 211.19 294.177 231.92 292.642C258.592 290.666 338.866 290.296 312.121 290.296" stroke-linecap="round" />
</svg>