<svg xmlns="http://www.w3.org/2000/svg" width="100%" height="100%" viewBox="0 0 358 335" fill="none" stroke="currentColor">
<path d="M167.603 5.99498C162.606 5.99498 170.389 17.7726 168.541 21.6734C155.713 48.7541 141.197 75.1612 126.531 101.405C111.936 127.522 100.029 154.873 86.531 181.539C74.8732 204.571 59.9276 225.627 50.6181 249.881C44.4074 266.061 34.2862 280.59 25.2915 295.308C20.0451 303.893 14.7312 313.108 9.01005 321.372C6.65524 324.773 4.22386 329.62 9.61307 328.273C23.4254 324.82 36.0783 319.539 49.4121 314.739C101.639 295.937 150.927 270.361 203.784 253.231C217.373 248.827 231.924 242.891 245.392 239.898C248.214 239.271 251.775 238.468 254.437 237.285C256.545 236.348 262.595 236.984 261.673 235.141" stroke-linecap="round" />
<path d="M241.171 195.342C231.881 190.423 243.48 197.665 246.732 202.176C261.661 222.884 281.179 239.985 297.854 259.261C312.497 276.188 325.319 294.37 339.462 311.657C343.47 316.555 355.395 331.275 350.92 326.799" stroke-linecap="round" />
</svg>