<svg xmlns="http://www.w3.org/2000/svg" width="100%" height="100%" viewBox="0 0 330 292" fill="none" stroke="currentColor">
<path d="M9.67337 6.47237C2.63491 6.47237 19.3894 11.805 21.7337 13.1725C34.6574 20.7114 43.4471 33.2351 54.0285 43.5913C59.2708 48.7221 66.5475 51.4202 71.7169 56.5896C73.9499 58.8226 78.6855 65.7682 77.2111 67.9799" stroke-linecap="round" />
<path d="M7.26131 275.417C4.78667 275.726 13.1592 279.601 14.4975 279.973C17.969 280.937 21.4662 285.065 24.7487 285.065C28.8327 285.065 32.964 283.332 36.809 282.05C48.2696 278.23 59.7338 274.515 71.1809 270.593C89.9932 264.148 108.807 257.432 126.658 248.616C150.342 236.921 174.989 226.669 196.675 211.43C218.504 196.091 237.038 178.915 256.441 160.71C278.847 139.687 302.288 119.374 323.241 96.9246" stroke-linecap="round" />
</svg>