<svg xmlns="http://www.w3.org/2000/svg" width="100%" height="100%" viewBox="0 0 336 425" fill="none" stroke="currentColor">
<path d="M6.67337 152.211C7.18421 156.298 15.1831 154.616 17.5276 154.355C38.8955 151.981 60.704 151.728 82.1843 150.402C134.345 147.182 186.211 140.281 238.231 135.595C263.203 133.345 288.52 129.296 313.608 129.296C317.314 129.296 328.242 130.179 329.889 126.884" stroke-linecap="round" />
<path d="M199.638 6.2814C196.329 9.5907 197.226 14.0015 197.226 18.4087C197.226 27.9883 198.337 37.461 198.432 47.0184C198.652 69.0347 198.432 91.0645 198.432 113.082C198.432 145.674 198.032 179.133 193.005 211.307C191.421 221.444 193.15 231.804 192.335 241.993C191.207 256.098 188.896 269.981 184.898 283.668C178.769 304.646 170.744 323.963 162.251 344.037C157.473 355.33 152.818 366.958 145.769 377.069C134.719 392.917 120.018 406.1 105.568 418.744" stroke-linecap="round" />
</svg>