<svg xmlns="http://www.w3.org/2000/svg" width="100%" height="100%" viewBox="0 0 348 411" fill="none" stroke="currentColor">
<path d="M136.246 6.69849C136.246 11.2454 147.645 13.6371 150.987 15.1407C161.789 20.0019 169.748 27.7308 178.39 35.5092C184.222 40.7577 188.686 45.8719 194.136 51.3216" stroke-linecap="round" />
<path d="M53.0302 105.593C45.1442 105.593 61.5501 103.532 63.4824 103.181C89.0979 98.5235 115.085 96.2084 140.601 91.0536C156.864 87.7681 172.485 82.2186 188.776 79.0603C200.714 76.7458 212.666 74.6231 224.621 72.4271C226.686 72.0479 242.377 67.7393 242.377 69.6801C242.377 77.805 236.918 87.134 232.461 93.5327C218.933 112.952 203.901 132.28 188.575 150.283C164.091 179.042 137.059 205.784 110.786 232.896C79.5183 265.161 43.6042 295.739 5.99498 320.266" stroke-linecap="round" />
<path d="M167.603 187.603C165.978 187.835 168.34 189.49 168.809 190.015C170.202 191.572 170.599 194.32 170.953 196.313C173.011 207.891 171.624 220.504 173.097 232.293C177.082 264.172 181.154 295.317 178.725 327.503C176.791 353.126 176.045 378.96 176.045 404.688" stroke-linecap="round" />
<path d="M200.166 188.809C197.939 189.127 206.364 193.423 206.866 193.7C216.045 198.765 224.445 204.631 233.265 210.25C257.962 225.984 288.384 236.299 308.642 258.156C318.213 268.483 326.539 279.001 333.432 291.255C335.231 294.453 338.094 298.175 341.271 299.764" stroke-linecap="round" />
</svg>