<svg xmlns="http://www.w3.org/2000/svg" width="100%" height="100%" viewBox="0 0 384 219" fill="none" stroke="currentColor">
<path d="M84.9146 17.1206C84.9146 16.9716 107.103 17.1206 109.571 17.1206C140.134 17.1206 169.774 12.8249 200.09 9.2814C218.254 7.15839 236.498 5.18755 254.831 6.33333C257.684 6.51168 266.561 10.8127 268.231 7.47236" stroke-linecap="round" />
<path d="M7.72865 212.497C-0.351657 212.497 23.7709 210.263 31.8492 210.085C52.2448 209.637 72.7792 204.95 92.9548 202.246C150.89 194.482 209.187 194.407 267.561 194.407C296.094 194.407 326.638 192.661 354.797 198.293C359.676 199.269 364.556 200.437 369.538 200.437C371.886 200.437 376.882 199.448 377.98 201.643" stroke-linecap="round" />
</svg>