<svg xmlns="http://www.w3.org/2000/svg" width="100%" height="100%" viewBox="0 0 285 368" fill="none" stroke="currentColor">
<path d="M45.5025 33.7638C41.2255 33.7638 38.7412 42.206 43.3585 42.206C51.5063 42.206 58.377 39.0734 66.072 36.8459C80.0557 32.798 95.1346 32.4574 109.422 29.8777C148.514 22.8195 187.726 17.3228 227.077 12.0553C237.861 10.6118 248.721 9.92482 259.506 8.43719C264.983 7.68177 270.322 6.02513 275.854 6.02513C280.619 6.02513 275.832 9.27605 274.648 11.1173C270.65 17.3371 268.546 26.1768 266.742 33.2278C257.729 68.4613 236.584 96.4348 219.707 128.035C169.568 221.913 100.546 308.879 6.90955 361.804" stroke-linecap="round" />
<path d="M98.5678 159.191C99.1652 164.567 114.351 168.229 118.4 170.112C130.617 175.795 142.17 186.258 152.839 194.434C166.657 205.023 178.564 218.067 191.432 229.744C203.41 240.613 214.803 252.26 225.134 264.719C232.891 274.073 241.219 282.979 248.384 292.792C253.549 299.867 258.733 307.295 264.933 313.496C268.612 317.175 272.11 320.869 275.854 324.417C277.391 325.873 279.715 329.97 278.266 325.623" stroke-linecap="round" />
</svg>