<svg xmlns="http://www.w3.org/2000/svg" width="100%" height="100%" viewBox="0 0 347 423" fill="none" stroke="currentColor">
<path d="M8.02512 120.945C-1.40835 120.945 26.8676 119.89 36.2998 119.739C54.3193 119.45 71.9747 115.996 89.7672 113.441C114.51 109.887 139.345 106.649 164.139 103.457C202.349 98.5391 240.548 96.6643 278.779 92.67C299.317 90.5243 320.213 87.1759 340.889 87.1759" stroke-linecap="round" />
<path d="M217.874 12.402C214.608 -16.9933 217.546 71.6133 219.683 101.112C223.439 152.944 230.874 205.457 227.791 257.494C225.288 299.719 228.729 342.239 228.729 384.462C228.729 393.747 229.812 403.707 227.791 412.804C227.352 414.776 227.945 419.077 226.317 414.68C221.694 402.198 215.461 390.287 210.638 377.829" stroke-linecap="round" />
<path d="M214.256 105.266C212.992 105.424 209.557 116.103 208.695 117.528C198.965 133.603 188.61 149.434 176.333 163.692C131.106 216.214 86.9379 269.494 34.5578 315.116" stroke-linecap="round" />
</svg>