<svg xmlns="http://www.w3.org/2000/svg" width="100%" height="100%" viewBox="0 0 296 365" fill="none" stroke="currentColor">
<path d="M48.5327 17.0553C51.0429 17.0553 53.3943 18.2539 55.8358 18.8643C62.6488 20.5676 71.093 19.712 78.0134 19.1993C107.981 16.9795 137.946 14.3615 167.93 12.4992C188.366 11.2298 209.186 11.9378 229.437 8.88107C232.979 8.34643 245.994 9.26833 247.528 6.201" stroke-linecap="round" />
<path d="M8.73367 131.628C-1.61119 131.628 29.4775 130.642 39.6214 128.613C55.5155 125.434 72.2162 123.77 88.3317 121.98C112.836 119.257 137.294 115.85 161.9 114.476C201.98 112.237 241.717 106.301 281.9 106.301C289.155 106.301 290.408 106.035 288.265 113.538C286.529 119.612 283.792 125.639 281.832 131.695C277.91 143.821 274.698 156.046 269.839 167.876C256.911 199.354 244.377 230.083 223.139 257.055C187.865 301.853 138.098 336.286 85.9196 358.362" stroke-linecap="round" />
</svg>