<svg xmlns="http://www.w3.org/2000/svg" width="100%" height="100%" viewBox="0 0 251 353" fill="none" stroke="currentColor">
<path d="M6.56281 6.1407C13.2749 12.107 18.6231 11.2662 18.6231 21.2831C18.6231 50.0618 18.8532 78.6913 18.6231 107.447C18.3548 140.986 19.8291 174.512 19.8291 208.084C19.8291 220.165 16.3765 231.818 16.211 243.729C16.0448 255.697 16.3607 267.673 16.211 279.642C16.002 296.368 12.593 313.227 12.593 329.893C12.593 331.491 9.20761 348.097 11.1189 345.973C15.1844 341.456 20.4274 338.17 25.9933 335.387C42.7477 327.01 59.0925 317.807 75.9095 309.524C100.586 297.37 124.137 283.002 147.668 268.787C184.697 246.42 214.35 213.125 244.151 182.221" stroke-linecap="round" />
</svg>