<svg xmlns="http://www.w3.org/2000/svg" width="100%" height="100%" viewBox="0 0 204 360" fill="none" stroke="currentColor">
<path d="M11.5929 6.34674C9.53842 6.60356 14.005 49.8516 14.005 54.5879C14.005 74.4785 10.7463 93.9166 10.3869 113.683C10.1762 125.275 8.29546 137.117 7.97486 148.658C7.89538 151.519 6.76883 168.646 6.76883 158.307" stroke-linecap="round" />
<path d="M197.322 6.34674C195.368 6.59089 194.91 53.1325 194.91 58.206C194.91 71.9726 192.691 85.4378 192.497 99.2111C192.294 113.669 190.293 129.351 186.4 143.298C181.935 159.299 175.341 175.174 169.583 190.802C163.751 206.631 160.571 222.886 152.631 237.972C142.063 258.051 127.694 275.415 114.039 293.382C94.1276 319.581 69.0028 335.965 41.7437 353.683" stroke-linecap="round" />
</svg>