<svg xmlns="http://www.w3.org/2000/svg" width="100%" height="100%" viewBox="0 0 329 283" fill="none" stroke="currentColor">
<path d="M9.53983 28.2118C7.48009 26.0233 5.98981 21.8161 7.34191 27.525C9.93728 38.4832 10.9029 49.2219 12.6307 60.3564C17.8591 94.0506 25.5334 126.684 32.412 160.019C38.3324 188.71 46.5554 217.646 50.0641 246.768C51.2086 256.267 54.0478 265.684 54.0478 275.272C54.0478 280.127 53.1042 273.233 52.8115 271.769" stroke-linecap="round" />
<path d="M13.2488 33.1571C10.52 33.4982 14.7579 34.2888 15.7215 34.1187C21.6336 33.0754 26.9944 29.8865 33.0988 28.83C49.3527 26.0168 65.3599 27.2709 81.5219 23.5412C131.195 12.0783 180.585 12.2324 231.255 9.66682C233.438 9.5563 322.332 3.2809 322.332 8.43049C322.332 11.8082 319.151 17.0617 318.005 20.2443C314.102 31.0864 313.519 43.8381 311.205 55.1364C308.078 70.4008 306.468 86.0435 302.551 101.155C298.407 117.137 294.758 133.215 292.042 149.51C289.513 164.682 284.683 179.146 281.533 194.155C279.832 202.261 279.809 211.484 277.206 219.294C274.678 226.877 277.473 236.442 272.879 243.334" stroke-linecap="round" />
<path d="M55.2841 260.642C53.5014 260.642 56.8736 260.642 57.276 260.642C65.7443 260.642 73.8561 257.43 82.0713 255.766C113.18 249.465 144.828 248.448 176.445 247.043C190.161 246.433 203.788 245.895 217.518 245.806C230.097 245.725 242.723 243.829 255.295 244.845C264.745 245.608 274.665 248.279 284.006 248.279" stroke-linecap="round" />
</svg>