<svg xmlns="http://www.w3.org/2000/svg" width="100%" height="100%" viewBox="0 0 400 328" fill="none" stroke="currentColor">
<path d="M109.211 23.5276C105.301 27.9268 118.579 30.5357 118.859 35.5879C119.083 39.6133 116.542 44.2737 115.844 48.3183C114.359 56.9317 113.494 65.5855 111.891 74.1809C105.85 106.586 96.5995 139.056 87.2345 170.663C80.5547 193.208 67.234 214.924 54.8057 234.717C41.1604 256.448 24.8008 276.782 6.69849 294.884" stroke-linecap="round" />
<path d="M215.342 6.64322C224.851 7.69985 221.372 29.1879 221.372 34.6499C221.372 45.9987 222.599 56.7478 221.64 68.1508C220.502 81.6842 220.166 94.9746 220.166 108.553C220.166 134.535 221.372 160.389 221.372 186.342C221.372 209.572 223.421 233.906 219.496 256.894C217.008 271.467 213.209 289.157 215.945 303.93C216.091 304.721 217.995 321.637 218.692 321.149C223.438 317.827 230.19 315.588 235.576 313.243C246.772 308.367 257.907 302.12 268.474 296.023C286.909 285.388 305.465 273.641 322.075 260.312C349.386 238.396 371.919 209.795 393.834 182.724" stroke-linecap="round" />
</svg>