<svg xmlns="http://www.w3.org/2000/svg" width="100%" height="100%" viewBox="0 0 438 382" fill="none" stroke="currentColor">
<path d="M10.196 128.623C3.22724 128.623 6.60154 129.829 11.402 129.829C25.5864 129.829 39.6042 126.997 53.7471 126.211C67.7773 125.432 81.2733 122.342 95.1541 120.449C111.809 118.178 128.672 117.402 145.405 115.893C166.03 114.033 186.198 109.325 206.779 107.183C226.991 105.079 247.352 104.176 267.616 102.693C315.541 99.1868 363.901 98.7913 411.804 99.6784C417.887 99.791 435.978 102.09 429.894 102.09" stroke-linecap="round" />
<path d="M130.799 23.6985C130.798 23.6986 135.189 67.5256 135.355 71.0017C136.779 100.752 139.033 130.869 139.241 160.65C139.363 178.115 139.241 230.51 139.241 213.045" stroke-linecap="round" />
<path d="M305.673 6.81407C304.118 6.81407 311.57 8.63148 311.57 9.82915C311.57 10.226 309.328 12.8681 309.023 13.7822C307.804 17.4412 308.085 21.0543 308.085 24.9045C308.085 36.1831 308.085 47.4618 308.085 58.7404C308.085 72.304 310.257 86.5157 309.023 99.9464C307.225 119.534 300.773 138.644 296.025 157.635C293.605 167.316 292.81 177.25 289.727 186.781C285.292 200.488 280.517 214.12 274.585 227.25C264.763 248.987 257.469 271.37 246.511 292.71C240.015 305.359 233.416 318.277 224.065 329.092C209.746 345.656 193.548 360.652 177.834 375.859" stroke-linecap="round" />
</svg>