<svg xmlns="http://www.w3.org/2000/svg" width="100%" height="100%" viewBox="0 0 341 342" fill="none" stroke="currentColor">
<path d="M7.26131 159.774C2.85171 159.774 10.9398 159.742 11.5494 159.707C17.4099 159.372 22.7087 156.971 28.0318 154.682C56.0871 142.618 87.7905 136.635 117.613 130.829C154.288 123.689 191.179 118.068 227.965 111.533C254.127 106.885 281.989 102.974 308.568 101.951C315.932 101.668 326.278 101.115 333.425 103.157C335.922 103.871 331.928 109.302 331.415 110.327C326.713 119.732 316.975 127.862 309.171 134.514C286.914 153.487 265.852 171.946 246.055 193.543" stroke-linecap="round" />
<path d="M94.0955 6.60805C92.7907 6.60805 94.1723 6.81882 94.6985 7.34507C96.4988 9.14535 97.534 12.2334 98.3166 14.5812C101.25 23.3813 101.456 32.4288 102.27 41.5829C105.142 73.8995 102.538 106.32 102.538 138.668C102.538 157.362 102.538 176.055 102.538 194.749C102.538 211.697 105.426 226.947 107.965 243.593C111.419 266.238 117.847 292.438 134.833 309.054C148.981 322.895 166.892 324.988 184.816 329.824C202.418 334.574 224.46 337.124 242.437 333.978C265.2 329.995 334.29 325 311.181 325" stroke-linecap="round" />
</svg>