<svg xmlns="http://www.w3.org/2000/svg" width="100%" height="100%" viewBox="0 0 317 358" fill="none" stroke="currentColor">
<path d="M46.7086 6.52763C45.3131 6.52763 49.8481 8.75328 50.5946 9.2077C59.2882 14.4994 68.4346 18.5967 77.5293 23.144C90.0894 29.4241 102.173 35.8702 115.452 40.2965" stroke-linecap="round" />
<path d="M6.90954 151.251C4.84706 148.894 10.5254 150.543 11.3317 150.849C19.1423 153.812 25.6119 160.267 31.9682 165.456C42.2908 173.882 51.8277 180.343 63.593 186.226" stroke-linecap="round" />
<path d="M40.6784 350.246C42.8059 358.756 99.7167 328.616 101.181 327.868C134.501 310.846 168.648 292.244 198.668 269.844C238.093 240.427 274.116 206.8 310.829 174.166" stroke-linecap="round" />
</svg>