<svg xmlns="http://www.w3.org/2000/svg" width="100%" height="100%" viewBox="0 0 300 313" fill="none" stroke="currentColor">
<path d="M7.55779 32.5879C3.68342 34.0408 15.337 49.7912 16.67 51.8174C22.9257 61.3261 28.7622 70.6123 34.3585 80.5611C38.5366 87.989 42.3581 96.4657 47.8928 103.007C48.9845 104.297 52.1809 109.239 52.1809 108.568" stroke-linecap="round" />
<path d="M293.387 7.26131C291.221 5.36623 292.193 14.4288 292.114 15.7705C291.618 24.201 288.993 32.7583 287.357 41.0302C282.253 66.8324 272.743 92.2091 258.814 114.732C235.974 151.665 209.042 185.606 179.35 217.178C143.226 255.588 99.9371 282.279 53.3869 306.357" stroke-linecap="round" />
</svg>