<svg xmlns="http://www.w3.org/2000/svg" width="100%" height="100%" viewBox="0 0 340 342" fill="none" stroke="currentColor">
<path d="M40.0302 41.0301C35.9598 41.0301 36.9801 42.5861 40.0302 44.3802C43.415 46.3713 45.2236 45.456 49.1424 44.0452C59.3558 40.3684 70.023 40.7405 80.4992 38.4841C99.3968 34.4138 118.352 32.2359 137.451 29.2379C170.07 24.1174 202.453 15.732 235.273 12.0854C242.717 11.2583 253.726 5.1731 261.27 7.3283C269.009 9.53967 220.146 100.288 217.317 105.553C168.604 196.213 102.093 285.712 6.26131 329.271" stroke-linecap="round" />
<path d="M182.342 174.9C182.017 174.954 190.653 181.253 191.99 182.136C199.844 187.323 206.522 193.801 213.832 199.69C223.785 207.708 233.286 214.527 242.174 223.811C253.132 235.256 264.394 246.27 274.938 258.116C291.275 276.47 307.179 296.353 321.102 316.541C325.363 322.72 329.907 328.925 333.095 335.302" stroke-linecap="round" />
</svg>