<svg xmlns="http://www.w3.org/2000/svg" width="100%" height="100%" viewBox="0 0 248 380" fill="none" stroke="currentColor">
<path d="M78.9497 6.63818C76.6426 6.92657 71.0067 33.4002 69.8375 36.2529C60.3413 59.4237 49.2715 82.2235 38.5477 104.863C32.0956 118.484 23.6084 131.735 15.0301 144.126C12.6797 147.521 9.42847 150.049 7.12395 153.506C5.95574 155.258 5.7046 156.424 6.58794 153.774" stroke-linecap="round" />
<path d="M81.3618 29.5528C82.2799 36.897 208.953 12.6655 223.673 10.5243C228.454 9.82886 233.64 11.2156 238.146 9.31826C241.282 7.99766 241.764 8.29989 241.764 11.4623C241.764 25.1689 237.622 39.6195 235.131 53.0704C233.6 61.3374 233.69 69.6353 231.513 77.861C228.398 89.6266 224.655 100.273 220.055 111.563C207.807 141.627 198.212 172.51 184.477 202.015C170.571 231.888 162.141 263.929 142.199 290.658C120.496 319.75 98.111 350.864 69.3015 373.271" stroke-linecap="round" />
<path d="M57.2412 107.945C57.966 112.052 63.5728 112.053 66.8895 112.769C74.561 114.425 81.5167 117.446 88.665 120.608C106.483 128.489 124.189 136.397 141.663 145.064C153.765 151.066 164.818 157.15 176.035 164.628C178.611 166.345 182.62 167.977 184.343 170.658C186.216 173.571 183.711 171.701 182.668 170.658" stroke-linecap="round" />
</svg>