<svg xmlns="http://www.w3.org/2000/svg" width="100%" height="100%" viewBox="0 0 378 393" fill="none" stroke="currentColor">
<path d="M113.447 15.1407C109.031 15.1407 112.892 18.733 114.921 19.9648C123.813 25.3632 142.518 19.2302 151.504 17.5528C173.693 13.4109 196.481 12.1454 218.908 9.71356C232.878 8.19873 246.528 6.69849 260.583 6.69849" stroke-linecap="round" />
<path d="M8.52261 175.543C-2.42256 175.543 30.3588 173.885 41.2194 172.528C84.9231 167.065 128.957 162.39 172.811 158.39C238.558 152.393 305.448 145.392 371.538 145.392" stroke-linecap="round" />
<path d="M201.487 159.864C197.555 157.767 202.88 161.749 203.9 163.482C205.571 166.325 208.292 167.637 209.662 170.719C210.613 172.859 209.344 174.873 208.456 176.749C205.749 182.463 206.421 189.385 205.709 195.509C202.529 222.857 200.402 249.733 192.442 276.38C187.526 292.839 183.886 309.872 175.826 325.224C163.25 349.179 143.17 367.729 124.302 386.598" stroke-linecap="round" />
</svg>