<svg xmlns="http://www.w3.org/2000/svg" width="100%" height="100%" viewBox="0 0 180 394" fill="none" stroke="currentColor">
<path d="M10.2714 11.4623V10.2563" stroke-linecap="round" />
<path d="M11.4774 6.63818C9.60963 6.87165 12.9484 12.2759 13.6214 13.8744C15.8895 19.2611 13.8894 29.6775 13.8894 35.3149C13.8894 76.0614 12.0126 116.705 10.0033 157.392C7.6732 204.577 11.4774 251.374 11.4774 298.497C11.4774 325.205 6.65326 351.442 6.65326 378.095C6.65326 383.388 7.85929 393.826 7.85929 381.714" stroke-linecap="round" />
<path d="M25.9497 164.628C65.4007 168.215 101.454 188.244 137.508 202.551C148.635 206.967 183.114 215.147 171.142 215.147C167.565 215.147 163.862 211.663 159.819 211.663" stroke-linecap="round" />
</svg>