<svg xmlns="http://www.w3.org/2000/svg" width="100%" height="100%" viewBox="0 0 331 305" fill="none" stroke="currentColor">
<path d="M7.6181 40.3266C4.80843 40.6778 10.8242 46.8789 11.5042 47.8308C18.4915 57.613 23.0632 68.5406 29.3266 78.7186C35.3698 88.5387 49.8292 99.2637 49.8292 111.482" stroke-linecap="round" />
<path d="M158.372 6.55779C158.372 10.2957 160.643 13.4759 162.258 16.742C167.92 28.1948 173.22 39.8874 178.204 51.6499C181.377 59.1365 183.228 67.5228 187.317 74.5645C189.769 78.7882 191.097 80.776 189.729 75.3015" stroke-linecap="round" />
<path d="M311.538 13.794C316.255 14.0715 322.445 19.2603 324.536 23.4422C325.418 25.2069 323.629 27.9375 322.928 29.5394C319.155 38.1631 315.427 46.3749 312.744 55.469C281.397 161.698 187.767 231.917 105.307 298.417" stroke-linecap="round" />
</svg>