<svg xmlns="http://www.w3.org/2000/svg" width="100%" height="100%" viewBox="0 0 299 333" fill="none" stroke="currentColor">
<path d="M146.809 6.1407C140.745 6.4974 144.338 12.8973 144.397 16.995C144.535 26.6798 145.472 36.3217 146.541 45.9397C147.812 57.3747 146.893 72.2212 143.191 83.3266" stroke-linecap="round" />
<path d="M8.11558 113.477C7.58152 111.341 5.58099 112.62 6.37354 114.884C8.86679 122.008 8.04452 129.689 10.5946 136.861C13.7151 145.637 17.7638 153.464 17.7638 162.925" stroke-linecap="round" />
<path d="M31.0302 106.241C33.54 106.241 36.0374 106.187 38.5343 106.509C48.894 107.846 58.6633 105.693 69.0201 105.035C100.556 103.033 131.819 97.3272 163.425 95.6549C192.548 94.1141 221.449 90.1562 250.528 88.1507C264.709 87.1727 277.437 85.4609 291.533 86.9447C293.704 87.1733 290.638 97.4261 290.327 99.139C286.868 118.161 281.703 134.08 273.442 151.802C260.844 178.831 246.484 206.647 229.355 231.065C219.245 245.478 209.982 260.624 197.797 273.41C179.5 292.611 160.028 310.099 139.573 326.945" stroke-linecap="round" />
</svg>