<svg xmlns="http://www.w3.org/2000/svg" width="100%" height="100%" viewBox="0 0 348 326" fill="none" stroke="currentColor">
<path d="M6.96482 24.9397C4.70694 25.2219 11.2199 34.0325 11.7889 35.392C17.023 47.8956 19.5795 61.307 22.9112 74.3869C25.4482 84.3468 29.2063 93.8619 31.6214 103.868C32.09 105.809 33.4975 119.786 33.4975 112.98" stroke-linecap="round" />
<path d="M17.8191 30.9698C10.25 30.9698 32.6861 28.1161 40.1307 26.7487C56.3807 23.764 73.445 22.5357 89.9129 21.0536C128.851 17.5492 168.133 15.5536 207.166 13.1474C242.783 10.9518 278.525 6.84924 314.234 6.84924C318.178 6.84924 341.221 8.33081 341.035 11.6734C340.809 15.7398 336.736 20.2932 336.278 24.8727C335.502 32.6359 335.985 40.2033 333.799 47.8543C327.85 68.6765 322.69 89.6554 314.503 109.898C275.291 206.839 188.868 278.296 95.005 319.211" stroke-linecap="round" />
</svg>