<svg xmlns="http://www.w3.org/2000/svg" width="100%" height="100%" viewBox="0 0 264 318" fill="none" stroke="currentColor">
<path d="M8.76382 17H7.55779" stroke-linecap="round" />
<path d="M6.35176 17C13.6592 17 20.6615 14.5879 28.0603 14.5879C42.2654 14.5879 56.3275 13.3819 70.5394 13.3819C107.936 13.3819 145.665 8.94567 183.035 7.28476C196.041 6.70674 208.928 6.35265 221.963 6.14573C228.322 6.0448 235.053 6.14573 240.925 6.14573C245.548 6.14573 250.171 6.14573 254.794 6.14573C259.528 6.14573 257.206 9.16352 257.206 12.1759C257.206 26.5624 256.148 41.906 252.382 55.861C249.797 65.4389 249.351 75.5582 247.022 85.2077C243.156 101.224 237.549 116.743 233.688 132.779C224.583 170.602 200.929 208.404 175.732 237.704C161.111 254.705 143.379 267.781 124.543 279.647C101.298 294.289 73.5391 308.049 46.1508 311.271" stroke-linecap="round" />
<path d="M28.0603 135.191C14.9213 133.314 54.5869 133.985 67.8593 133.985C97.2482 133.985 126.519 130.6 155.9 130.367C167.586 130.274 179.161 129.005 190.874 129.161C200.353 129.287 210.285 128.64 219.685 129.228C224.138 129.506 227.477 132.779 231.879 132.779C234.693 132.779 237.508 132.779 240.322 132.779" stroke-linecap="round" />
</svg>