<svg xmlns="http://www.w3.org/2000/svg" width="100%" height="100%" viewBox="0 0 368 411" fill="none" stroke="currentColor">
<path d="M6.61307 183.513C21.0858 183.513 35.0376 178.413 48.9581 175.137C79.5594 167.937 110.198 160.498 141.085 154.501C157.748 151.265 174.039 146.456 190.6 142.776C205.88 139.38 221.543 137.669 236.965 135.003C261.843 130.703 286.8 125.224 311.471 119.861C313.781 119.359 361.052 112.397 361.052 115.439C361.052 116.865 357.939 119.891 357.032 120.799C350.944 126.887 344.243 132.59 337.735 138.219C299.753 171.077 262.505 204.701 223.699 236.578" stroke-linecap="round" />
<path d="M100.683 6.22614C100.683 9.31984 102.338 11.8994 102.827 14.9364C103.911 21.6549 104.216 28.483 105.508 35.1709C109.089 53.7125 113.969 72.0747 116.965 90.7152C120.566 113.122 128.204 134.043 133.514 156.042C138.874 178.248 142.057 200.472 147.049 222.709C151.826 243.99 157.765 265.116 161.521 286.628C165.674 310.413 169.345 333.802 175.189 357.181C178.456 370.247 185.106 386.395 185.106 399.928C185.106 403.367 185.106 413.686 185.106 410.246" stroke-linecap="round" />
</svg>