<svg xmlns="http://www.w3.org/2000/svg" width="100%" height="100%" viewBox="0 0 279 313" fill="none" stroke="currentColor">
<path d="M8.49748 31.2362C1.57011 31.2362 10.6437 31.4023 12.6516 30.9682C28.2924 27.5864 44.65 24.2875 60.4908 22.191C86.3191 18.7725 112.083 14.2914 138.146 13.1457C164.933 11.9683 191.618 9.97805 218.347 8.0536C235.396 6.82604 254.223 4.87496 270.742 9.59464C275.431 10.9342 269.648 49.222 268.732 52.2747C259.055 84.5303 255.079 118.853 251.513 152.375C249.914 167.404 249.67 182.156 246.688 197.065C244.091 210.052 243.673 222.797 243.673 235.993C243.673 252.472 240.996 267.54 237.04 283.363C235.631 288.999 234.025 294.904 234.025 300.717C234.025 301.984 233.69 309.294 235.231 306.211" stroke-linecap="round" />
<path d="M22.9698 166.312C23.4818 162.216 58.4735 162.428 62.2328 162.023C96.8476 158.296 131.672 156.923 166.42 154.854C189.53 153.479 212.245 151.994 235.231 149.695C238.61 149.357 248.483 147.696 250.843 151.236C252.381 153.544 250.319 153.045 248.497 153.045" stroke-linecap="round" />
<path d="M42.2663 300.181C32.8374 303.198 40.0371 300.455 44.9464 298.975C61.6924 293.924 76.9355 293.933 94.1256 292.342C123.803 289.594 152.341 293.689 181.898 294.151C195.373 294.361 207.499 298.465 220.692 300.114C226.753 300.872 244.958 302.593 238.849 302.593" stroke-linecap="round" />
</svg>