<svg xmlns="http://www.w3.org/2000/svg" width="100%" height="100%" viewBox="0 0 383 220" fill="none" stroke="currentColor">
<path d="M83.1206 31.1809C70.9033 31.1809 107.306 27.6924 119.368 25.7538C153.793 20.2212 188.546 17.8168 223.02 13.0904C245.821 9.96446 269.64 6.17331 292.702 7.0603C301.638 7.40401 293.268 22.1911 291.764 24.6147C286.784 32.6376 283.011 41.7246 279.704 50.5444C274.492 64.441 267.944 77.7726 262.819 91.7504C257.163 107.177 249.732 121.875 242.049 136.374C235.926 147.927 232.224 160.428 226.638 172.219C223.602 178.629 221.884 184.82 220.005 191.583C219.16 194.625 218.196 197.851 218.196 192.789" stroke-linecap="round" />
<path d="M11.9648 213.291C-13.1414 211.618 61.9215 207.08 87.0067 205.117C141.013 200.891 194.062 194.225 248.347 198.216C269.921 199.802 291.837 200.025 313.472 200.025C326.683 200.025 341.461 198.597 354.41 201.834C361.263 203.547 369.297 204.849 376.186 204.849" stroke-linecap="round" />
</svg>